<?xml version="1.0" encoding="UTF-8" standalone="no"?>
<!-- Created with Inkscape (http://www.inkscape.org/) -->

<svg
   xmlns:dc="http://purl.org/dc/elements/1.1/"
   xmlns:cc="http://creativecommons.org/ns#"
   xmlns:rdf="http://www.w3.org/1999/02/22-rdf-syntax-ns#"
   xmlns:svg="http://www.w3.org/2000/svg"
   xmlns="http://www.w3.org/2000/svg"
   xmlns:sodipodi="http://sodipodi.sourceforge.net/DTD/sodipodi-0.dtd"
   xmlns:inkscape="http://www.inkscape.org/namespaces/inkscape"
   version="1.0"
   width="503"
   height="503"
   id="svg2"
   sodipodi:version="0.32"
   inkscape:version="0.48.4 r9939"
   sodipodi:docname="33.svg"
   inkscape:output_extension="org.inkscape.output.svg.inkscape">
  <metadata
     id="metadata12">
    <rdf:RDF>
      <cc:Work
         rdf:about="">
        <dc:format>image/svg+xml</dc:format>
        <dc:type
           rdf:resource="http://purl.org/dc/dcmitype/StillImage" />
        <dc:title></dc:title>
      </cc:Work>
    </rdf:RDF>
  </metadata>
  <sodipodi:namedview
     inkscape:window-height="1001"
     inkscape:window-width="1280"
     inkscape:pageshadow="2"
     inkscape:pageopacity="0.0"
     guidetolerance="10.0"
     gridtolerance="10.0"
     objecttolerance="10.0"
     borderopacity="1.0"
     bordercolor="#666666"
     pagecolor="#ffffff"
     id="base"
     inkscape:zoom="1.358"
     inkscape:cx="268.21382"
     inkscape:cy="226.46833"
     inkscape:window-x="-8"
     inkscape:window-y="-8"
     inkscape:current-layer="svg2"
     width="200px"
     height="200px"
     showgrid="false"
     inkscape:showpageshadow="false"
     inkscape:window-maximized="1"
     fit-margin-top="1.5"
     fit-margin-left="1.5"
     fit-margin-right="1.5"
     fit-margin-bottom="1.5" />
  <defs
     id="defs4" />
  <path
     inkscape:connector-curvature="0"
     d="m 1.5,501.49999 500,0 0,-499.99999 -500,0 0,499.99999 z"
     style="fill:#ffffff;fill-opacity:1;fill-rule:evenodd;stroke:#000000;stroke-opacity:1;stroke-width:2;stroke-miterlimit:4;stroke-dasharray:none"
     id="path16009" />
  <path
     inkscape:connector-curvature="0"
     d="m 14.000088,489.00343 475.003352,0 0,-475.00687 -475.003352,0 0,475.00687 z"
     style="fill:#6b4033;fill-opacity:1;fill-rule:evenodd;stroke:none"
     id="path16011" />
  <path
     inkscape:connector-curvature="0"
     d="m 79.503843,423.49733 0,-343.99349 343.993497,0 0,343.99349 -343.993497,0 z"
     style="fill:#ffffff;fill-opacity:1;fill-rule:evenodd;stroke:none"
     id="path16013" />
  <path
     inkscape:connector-curvature="0"
     d="m 174.72324,213.0831 c 1.38406,-0.29982 2.5106,-0.77254 3.69005,-1.55575 0.53735,-0.32691 0.89719,-0.77028 1.11008,-1.36408 0.25992,-1.12653 -1.53576,-3.19616 -2.45299,-3.93347 -5.70323,-4.44264 -12.30958,-6.00662 -19.39689,-4.58258 -1.51341,0.3128 -4.46263,1.46638 -4.80012,2.91982 -0.26341,1.12654 1.53693,3.19617 2.45062,3.93347 5.70324,4.44265 12.30959,6.00663 19.39925,4.58259 z m 34.32409,-7.47301 c -1.143,0.83378 -1.97673,1.72743 -2.73638,2.91982 -0.36096,0.52098 -0.51035,1.0701 -0.46096,1.70039 0.21985,1.13359 2.70345,2.29306 3.84057,2.59292 7.01675,1.74037 13.69012,0.4809 19.58269,-3.70299 1.25706,-0.90311 3.48074,-3.15383 3.19734,-4.62021 -0.21637,-1.1336 -2.69993,-2.29306 -3.84058,-2.59645 -7.01322,-1.74037 -13.68659,-0.47629 -19.58268,3.70652 z m -46.02338,51.65018 c -0.55738,8.08684 2.77284,16.50999 8.61601,22.50956 5.88668,6.04426 12.65414,8.67363 19.77436,8.4502 8.58308,-0.26698 14.20989,-1.73919 21.23252,-8.22677 4.58728,-4.2298 8.87706,-12.31664 9.5003,-19.75908 0.48326,-5.80672 -4.34622,-1.76389 -9.8766,1.36643 -7.70349,4.3568 -22.39668,5.64326 -31.68649,3.09974 -2.29305,-0.62672 -4.86363,-1.63336 -7.11317,-2.84339 -2.94334,-1.57692 -7.03674,-3.96992 -9.27688,-4.59669 -0.55974,-0.15645 -1.15005,-0.29982 -1.17005,0 z m 9.49325,11.10661 c 1.92029,0.95015 3.59598,1.61337 5.6268,2.22368 11.53936,3.10915 22.04978,2.49296 33.24342,-1.96027 -2.04023,3.77002 -4.42736,6.52051 -7.71995,8.89705 -4.02755,2.89278 -7.88693,3.44311 -12.84699,3.63009 -2.92688,0.11994 -5.43395,-0.45391 -8.09037,-1.85091 -4.49321,-2.53294 -7.73288,-6.00663 -10.21291,-10.93964 z m 69.21615,23.64669 c 2.62349,85.6062 134.76695,79.2562 134.76695,-4.88009 l 0,-94.97598 c -39.66044,10.42576 -76.37637,11.91566 -115.19367,4.46969 l 0,-46.86651 c -46.27267,12.1626 -88.53308,12.1626 -134.80575,0 0,0 0,96.99622 0,96.99622 -0.1999,67.34996 77.80982,80.29337 115.23247,45.25667 z M 136.42334,265.96682 c -1.89912,-6.54285 -2.68581,-12.32017 -2.6129,-19.13349 l 0,-87.72639 c 40.99629,9.48972 79.37027,9.41328 120.18311,-0.007 l 0,85.6603 c 0.0235,17.35313 -6.56989,33.4198 -19.98015,44.30299 -7.0532,5.68325 -14.01585,9.28393 -22.72946,11.75691 -15.73741,4.46969 -32.58725,3.63008 -47.52033,-3.23968 -13.78655,-6.29708 -23.09988,-17.06385 -27.34027,-31.61358 z m 140.69361,59.05028 c -0.54328,-7.79992 2.71992,-15.91968 8.4502,-21.70053 5.77027,-5.82672 12.40602,-8.35966 19.38631,-8.14682 8.41727,0.26106 13.93354,1.67687 20.81976,7.92692 4.49674,4.08399 8.7042,11.87685 9.31333,19.04999 0.47743,5.59976 -4.26273,1.70392 -9.68257,-1.31351 -7.55414,-4.20276 -21.95688,-5.43983 -31.0703,-2.9892 -2.2472,0.6033 -4.76721,1.57574 -6.97324,2.73991 -2.88337,1.51929 -6.8968,3.82646 -9.09696,4.43324 -0.54676,0.14938 -1.12654,0.28692 -1.14653,0 z m -0.27639,-90.28639 c -11.31005,2.40242 -19.28988,9.92951 -17.83056,16.80985 1.46403,6.87917 11.81688,10.50925 23.12693,8.10684 11.30652,-2.4036 19.28988,-9.9307 17.82703,-16.81339 -1.46403,-6.88034 -11.81335,-10.51042 -23.1234,-8.1033 z m 52.96369,24.91669 c 11.30652,2.40241 21.6629,-1.22767 23.12222,-8.10684 1.46403,-6.88034 -6.51933,-14.40743 -17.82585,-16.80985 -11.31006,-2.40712 -21.66408,1.22296 -23.12693,8.1033 -1.46285,6.88269 6.52051,14.40979 17.83056,16.81339 z M 221.88373,220.16687 c 11.30652,-2.40359 19.25696,-10.08356 17.75295,-17.15322 -1.49931,-7.06967 -11.88626,-10.8538 -23.19631,-8.4502 -11.31005,2.40359 -19.26048,10.08356 -17.75295,17.15322 1.49931,7.07084 11.88626,10.85379 23.19631,8.4502 z m -52.96721,-25.60342 c -11.30653,-2.4036 -21.6923,1.38053 -23.19631,8.4502 -1.50283,7.06966 6.44642,14.74963 17.75648,17.15322 11.30652,2.40359 21.69347,-1.37936 23.19748,-8.4502 1.50283,-7.06966 -6.4476,-14.74963 -17.75765,-17.15322"
     style="fill:#141212;fill-opacity:1;fill-rule:evenodd;stroke:none"
     id="path16015" />
</svg>
