<?xml version="1.0" encoding="utf-8"?>
<!-- Generator: Adobe Illustrator 14.0.0, SVG Export Plug-In . SVG Version: 6.00 Build 43363)  -->
<!DOCTYPE svg PUBLIC "-//W3C//DTD SVG 1.1//EN" "http://www.w3.org/Graphics/SVG/1.1/DTD/svg11.dtd">
<svg version="1.1" xmlns="http://www.w3.org/2000/svg" xmlns:xlink="http://www.w3.org/1999/xlink" x="0px" y="0px"
	 width="347.783px" height="314.87px" viewBox="0 0 347.783 314.87" enable-background="new 0 0 347.783 314.87"
	 xml:space="preserve">
<g id="Shadow">
	<path fill-opacity="0.25" d="M24.783,260.645c-3,5-3.5,7-3.5,15.5s18.5,32.5,42,36s99,12.5,145.5-44c68-1.5,110.5-35.5,117.5-56
		s20-54,21.5-58.5c0,0-5-8-17,0s-35.5,7-53.5,7.5s-79,2-79,2l-81,38.5L24.783,260.645z"/>
</g>
<g id="Back_mask">
	<g>
		<path fill="#FFA646" d="M104.14,10c34.162,31.056,132.541,27.95,173.912,0c0,58.384-0.006,95.018,0.002,110.559
			c0.004,7.453-12.871,91.306-87.268,91.305c-54.797,0.223-87.268-45.963-87.268-90.063L104.14,10z"/>
		<path fill="none" stroke="#B3B3B3" stroke-width="5" stroke-linejoin="round" d="M104.14,10
			c34.162,31.056,132.541,27.95,173.912,0c0,58.384-0.006,95.018,0.002,110.559c0.004,7.453-12.871,91.306-87.268,91.305
			c-54.797,0.223-87.268-45.963-87.268-90.063L104.14,10z"/>
		<path d="M278.052,10c0,58.384-0.006,95.018,0.002,110.559c0.004,7.453-12.871,91.306-87.268,91.305
			c-0.131,0.001-0.265,0.001-0.395,0.001c-54.56,0-86.873-46.069-86.873-90.063L104.14,10
			c16.631,15.118,48.491,22.143,81.573,22.143C220.587,32.143,256.82,24.344,278.052,10 M104.138,0
			c-1.358,0-2.726,0.276-4.018,0.844c-3.615,1.587-5.958,5.153-5.98,9.101l-0.621,111.801c0,0.019,0,0.037,0,0.056
			c0,24.814,9.277,49.642,25.453,68.117c18.037,20.601,43.401,31.946,71.42,31.946l0.436-0.001
			c34.522,0,62.261-16.561,80.174-47.894c13.021-22.774,17.056-47.124,17.053-53.417c-0.005-10.204-0.004-29.503-0.003-58.083
			L288.052,10c0-3.699-2.042-7.096-5.309-8.831C281.271,0.387,279.659,0,278.053,0c-1.961,0-3.915,0.576-5.6,1.714
			c-18.651,12.601-51.888,20.429-86.74,20.429c-33.406,0-61.386-7.306-74.847-19.542C108.989,0.894,106.58,0,104.138,0L104.138,0z"
			/>
	</g>
	<g>
		<linearGradient id="SVGID_1_" gradientUnits="userSpaceOnUse" x1="155.0723" y1="58.9473" x2="155.0723" y2="98.9473">
			<stop  offset="0" style="stop-color:#000000"/>
			<stop  offset="1" style="stop-color:#FFFFFF"/>
		</linearGradient>
		<path opacity="0.5" fill="url(#SVGID_1_)" d="M155.071,65.947c7.18,0,13,5.821,13,13c0,7.18-5.82,13-13,13
			c-7.179,0-12.999-5.82-12.999-13C142.072,71.769,147.893,65.947,155.071,65.947 M155.071,58.947c-11.027,0-19.999,8.972-19.999,20
			s8.972,20,19.999,20c11.028,0,20-8.972,20-20S166.1,58.947,155.071,58.947L155.071,58.947z"/>
		<g>
			<path fill="#FFFFFF" d="M155.071,92.447c-7.443,0-13.499-6.056-13.499-13.5s6.056-13.5,13.499-13.5c7.444,0,13.5,6.056,13.5,13.5
				S162.516,92.447,155.071,92.447L155.071,92.447z"/>
			<path d="M155.071,68.947c5.523,0,10,4.478,10,10s-4.477,10-10,10c-5.521,0-9.999-4.478-9.999-10S149.55,68.947,155.071,68.947
				 M155.071,61.947c-9.373,0-16.999,7.626-16.999,17s7.626,17,16.999,17c9.374,0,17-7.626,17-17S164.445,61.947,155.071,61.947
				L155.071,61.947z"/>
		</g>
	</g>
	<g>
		<linearGradient id="SVGID_2_" gradientUnits="userSpaceOnUse" x1="225.8799" y1="58.9473" x2="225.8799" y2="98.9473">
			<stop  offset="0" style="stop-color:#000000"/>
			<stop  offset="1" style="stop-color:#FFFFFF"/>
		</linearGradient>
		<path opacity="0.5" fill="url(#SVGID_2_)" d="M225.88,65.947c7.179,0,12.999,5.821,12.999,13c0,7.18-5.82,13-12.999,13
			c-7.18,0-13-5.82-13-13C212.88,71.769,218.7,65.947,225.88,65.947 M225.88,58.947c-11.028,0-20,8.972-20,20s8.972,20,20,20
			c11.027,0,20-8.972,20-20S236.907,58.947,225.88,58.947L225.88,58.947z"/>
		<g>
			<path fill="#FFFFFF" d="M225.88,92.447c-7.444,0-13.5-6.056-13.5-13.5s6.056-13.5,13.5-13.5c7.443,0,13.499,6.056,13.499,13.5
				S233.323,92.447,225.88,92.447L225.88,92.447z"/>
			<path d="M225.88,68.947c5.521,0,9.999,4.478,9.999,10s-4.478,10-9.999,10c-5.523,0-10-4.478-10-10S220.356,68.947,225.88,68.947
				 M225.88,61.947c-9.374,0-17,7.626-17,17s7.626,17,17,17c9.373,0,16.999-7.626,16.999-17S235.253,61.947,225.88,61.947
				L225.88,61.947z"/>
		</g>
	</g>
	<g>
		
			<linearGradient id="SVGID_3_" gradientUnits="userSpaceOnUse" x1="437.1553" y1="355.668" x2="437.1553" y2="313.6289" gradientTransform="matrix(-1 0 0 -1 628.3477 485.2969)">
			<stop  offset="0" style="stop-color:#000000"/>
			<stop  offset="1" style="stop-color:#FFFFFF"/>
		</linearGradient>
		<path fill="url(#SVGID_3_)" fill-opacity="0.5" stroke="#CCCCCC" stroke-width="0.25" d="M141.452,171.121
			c10.447,4.577,4.482-21.044,50.146-22.663c41.267,1.619,36.784,24.58,50.766,22.1c6.088-6.766,5.637-40.985-50.426-40.929
			C128.824,130.396,134.687,169.43,141.452,171.121z"/>
		<path d="M140.798,168.058c8.037,3.521,8.313-20.997,50.579-22.088c42.267,1.091,42.456,25.608,50.493,22.088
			c5.442-3.408,3.455-38.871-50.582-37.629C137.251,129.187,135.355,164.649,140.798,168.058z"/>
	</g>
</g>
<g id="Layer_2">
	<g>
		<path fill="#FFCA9A" d="M10.621,102c34.162,31.056,132.541,27.95,173.912,0c0,58.384-0.006,95.018,0.002,110.559
			c0.004,7.453-12.871,91.306-87.268,91.305C42.471,304.086,10,257.9,10,213.801L10.621,102z"/>
		<path fill="none" stroke="#999999" stroke-width="5" stroke-linecap="round" stroke-linejoin="round" d="M10.621,102
			c34.162,31.056,132.541,27.95,173.912,0c0,58.384-0.006,95.018,0.002,110.559c0.004,7.453-12.871,91.306-87.268,91.305
			C42.471,304.086,10,257.9,10,213.801L10.621,102z"/>
		<path d="M184.533,102c0,58.384-0.006,95.018,0.002,110.559c0.004,7.453-12.871,91.306-87.268,91.305
			c-0.13,0.001-0.264,0.001-0.395,0.001c-54.56,0-86.873-46.068-86.873-90.063L10.621,102c16.63,15.118,48.491,22.143,81.573,22.143
			C127.068,124.143,163.302,116.344,184.533,102 M10.619,92c-1.358,0-2.726,0.276-4.018,0.844c-3.615,1.587-5.958,5.153-5.98,9.101
			L0,213.745c0,0.019,0,0.037,0,0.056c0,24.813,9.277,49.642,25.453,68.117c18.036,20.601,43.4,31.946,71.42,31.946l0.436-0.001
			c34.522,0,62.26-16.561,80.174-47.894c13.021-22.773,17.056-47.123,17.053-53.416c-0.005-10.204-0.004-29.503-0.003-58.083
			L194.533,102c0-3.699-2.042-7.096-5.309-8.831c-1.472-0.782-3.084-1.169-4.69-1.169c-1.961,0-3.915,0.576-5.599,1.714
			c-18.652,12.601-51.889,20.429-86.741,20.429c-33.406,0-61.386-7.306-74.847-19.542C15.471,92.894,13.061,92,10.619,92L10.619,92z
			"/>
	</g>
	<g>
		<linearGradient id="SVGID_4_" gradientUnits="userSpaceOnUse" x1="61.5532" y1="150.9473" x2="61.5532" y2="190.9478">
			<stop  offset="0" style="stop-color:#000000"/>
			<stop  offset="1" style="stop-color:#FFFFFF"/>
		</linearGradient>
		<path opacity="0.5" fill="url(#SVGID_4_)" d="M61.553,157.947c7.179,0,13,5.821,13,13c0,7.18-5.82,13-13,13s-13-5.82-13-13
			C48.554,163.769,54.374,157.947,61.553,157.947 M61.553,150.947c-11.028,0-20,8.972-20,20s8.972,20,20,20s20-8.972,20-20
			S72.581,150.947,61.553,150.947L61.553,150.947z"/>
		<g>
			<path fill="#FFFFFF" d="M61.553,184.447c-7.444,0-13.5-6.056-13.5-13.5s6.056-13.5,13.5-13.5s13.5,6.056,13.5,13.5
				S68.997,184.447,61.553,184.447L61.553,184.447z"/>
			<path d="M61.553,160.947c5.522,0,10,4.478,10,10s-4.477,10-10,10s-10-4.478-10-10S56.031,160.947,61.553,160.947 M61.553,153.947
				c-9.374,0-17,7.626-17,17s7.626,17,17,17s17-7.626,17-17S70.927,153.947,61.553,153.947L61.553,153.947z"/>
		</g>
	</g>
	<g>
		<linearGradient id="SVGID_5_" gradientUnits="userSpaceOnUse" x1="132.3608" y1="150.9473" x2="132.3608" y2="190.9478">
			<stop  offset="0" style="stop-color:#000000"/>
			<stop  offset="1" style="stop-color:#FFFFFF"/>
		</linearGradient>
		<path opacity="0.5" fill="url(#SVGID_5_)" d="M132.361,157.947c7.179,0,13,5.821,13,13c0,7.18-5.82,13-13,13s-13-5.82-13-13
			C119.361,163.769,125.182,157.947,132.361,157.947 M132.361,150.947c-11.028,0-20,8.972-20,20s8.972,20,20,20s20-8.972,20-20
			S143.389,150.947,132.361,150.947L132.361,150.947z"/>
		<g>
			<path fill="#FFFFFF" d="M132.361,184.447c-7.444,0-13.5-6.056-13.5-13.5s6.056-13.5,13.5-13.5s13.5,6.056,13.5,13.5
				S139.805,184.447,132.361,184.447L132.361,184.447z"/>
			<path d="M132.361,160.947c5.522,0,10,4.478,10,10s-4.477,10-10,10s-10-4.478-10-10S126.838,160.947,132.361,160.947
				 M132.361,153.947c-9.374,0-17,7.626-17,17s7.626,17,17,17s17-7.626,17-17S141.734,153.947,132.361,153.947L132.361,153.947z"/>
		</g>
	</g>
	<g>
		<linearGradient id="SVGID_6_" gradientUnits="userSpaceOnUse" x1="97.6743" y1="263.668" x2="97.6743" y2="221.6289">
			<stop  offset="0" style="stop-color:#000000"/>
			<stop  offset="1" style="stop-color:#FFFFFF"/>
		</linearGradient>
		<path fill="url(#SVGID_6_)" fill-opacity="0.5" stroke="#CCCCCC" stroke-width="0.25" d="M147.414,222.176
			c-10.447-4.577-4.482,21.044-50.146,22.663c-41.267-1.619-36.784-24.58-50.766-22.1c-6.088,6.766-5.637,40.985,50.425,40.929
			C160.042,262.9,154.18,223.867,147.414,222.176z"/>
		<path d="M148.068,225.239c-8.037-3.521-8.313,20.997-50.579,22.088c-42.266-1.091-42.457-25.608-50.494-22.088
			c-5.442,3.408-3.455,38.871,50.583,37.629C151.615,264.11,153.511,228.647,148.068,225.239z"/>
	</g>
</g>
</svg>
