<?xml version="1.0" encoding="utf-8"?>
<!-- Generator: Adobe Illustrator 12.0.0, SVG Export Plug-In . SVG Version: 6.00 Build 51448)  -->
<!DOCTYPE svg PUBLIC "-//W3C//DTD SVG 1.1//EN" "http://www.w3.org/Graphics/SVG/1.1/DTD/svg11.dtd" [
	<!ENTITY ns_svg "http://www.w3.org/2000/svg">
	<!ENTITY ns_xlink "http://www.w3.org/1999/xlink">
]>
<svg  version="1.1" xmlns="&ns_svg;" xmlns:xlink="&ns_xlink;" width="503" height="696" viewBox="0 0 503 696"
	 overflow="visible" enable-background="new 0 0 503 696" xml:space="preserve">
<g id="Layer_2">
</g>
<g id="Layer_1">
	<path fill="#314396" stroke="#314396" d="M493.27,168.896c-0.545-2.158-1.122-4.298-1.77-6.396
		c-0.069-0.226-0.154-0.441-0.226-0.666c-6.443-20.169-20.705-34.767-32.774-51.334c-9.032-12.399-17.999-25.557-27-36
		c-37.42-43.418-100.325-71.644-165-74h-29c-50.125,2.721-93.719,17.267-128,41c-26.938,18.649-43.407,40.457-64,68
		c-11.146,14.907-26.888,33.655-32.527,48.683c-0.166,0.442-0.325,0.881-0.473,1.317c-0.727,2.138-1.377,4.301-1.975,6.482
		C3.64,191.139,4.771,219.062,0.5,246.5v28c4.67,119.733,30.547,232.988,67,325c5.417,13.673,10.16,29.304,17,40
		c10.257,16.04,40.055,28.421,60,34c32.496,9.09,73.844,12.835,104,22h6c35.348-9.523,71.418-13.099,104-22
		c17.579-4.803,39.151-12.655,52-24c7.904-6.979,14.601-21.787,20-35c37.451-91.644,65.204-201.326,72-320v-61
		C499.371,213.152,498.538,189.756,493.27,168.896z M362.5,416.5c14.961,16.989,16.077,65.574-4,81
		c35.74,19.391,27.156,78.106,6,101c-9.992,10.813-34.445,24.365-57,29c-14.994,3.081-34.805,4.648-55,4.615
		c-29.406-0.049-59.632-3.494-77-10.615c-10.67-4.375-23.716-11.995-31-18c-24.062-19.836-37.356-86.371,0-106
		c-17.712-16.004-20.531-63.516-2-81c-56.3,0.66-96.116-22.126-98-72c-0.521-13.78,1.908-28.207,4-42
		c2.844-18.753,11.3-34.934,13-57c2.052-26.644,3.675-50.855,13-70c1.47-3.018,3.25-6.078,5.183-9.1
		c5.478-8.566,12.213-16.822,16.817-22.9c-3.195,7.573-4.984,15.301-5.538,22.968c-3.855,53.364,52.2,103.753,111.538,78.032
		c-7.859,34.107,21.3,50.787,50.169,50.405c0.026,0,0.053-0.001,0.079-0.002c28.388-0.406,56.463-17.311,48.752-50.403
		c58.579,22.583,114.284-20.094,110.758-76.093c-0.528-8.396-2.376-17.087-5.758-25.907c5.404,7.13,12.038,15.772,18.118,25.981
		c7.782,13.067,14.657,28.701,16.882,47.019c1.261,10.38,0.084,21.843,1,33c2.022,24.637,13.943,48.751,16,77
		C463.155,389.458,425.392,416.967,362.5,416.5z"/>
	<path fill="#314396" stroke="#314396" d="M491.274,161.834c-6.443-20.169-20.705-34.767-32.774-51.334
		c-9.032-12.399-17.999-25.557-27-36c-37.42-43.418-100.325-71.644-165-74h-19.159c1.234,23.692,4.266,84.992,4.268,115.248
		C412.053,115.849,472.148,147.376,491.274,161.834z"/>
	<path fill="#324183" stroke="#314396" d="M247.341,0.5H237.5c-50.125,2.721-93.719,17.267-128,41
		c-26.938,18.649-43.407,40.457-64,68c-11.146,14.907-26.888,33.655-32.527,48.683c20.313-14.041,80.492-42.238,236.254-42.434
		c0.541,0,1.071-0.004,1.615-0.004c0.258,0,0.509,0.002,0.767,0.002C251.607,85.492,248.575,24.192,247.341,0.5z"/>
	<path fill="#314396" stroke="#314396" d="M252.669,294.905c0.026,0,0.053-0.001,0.079-0.002
		c-0.236-29.822-1.139-146.121-1.139-179.134v-0.021c-0.257,0-0.508-0.002-0.767-0.002c-0.543,0-1.074,0.004-1.615,0.004
		c-155.762,0.195-215.941,28.393-236.254,42.434c-0.166,0.442-0.325,0.881-0.473,1.317c-0.727,2.138-1.377,4.301-1.975,6.482
		C3.64,191.139,4.771,219.062,0.5,246.5v28c4.67,119.733,30.547,232.988,67,325c5.417,13.673,10.16,29.304,17,40
		c10.257,16.04,40.055,28.421,60,34c32.496,9.09,73.843,12.835,104,22h4v-63.385c-29.407-0.049-59.632-3.494-77-10.615
		c-10.67-4.375-23.716-11.995-31-18c-24.062-19.836-37.356-86.371,0-106c-17.712-16.004-20.531-63.516-2-81
		c-56.3,0.66-96.116-22.126-98-72c-0.521-13.78,1.908-28.207,4-42c2.844-18.753,11.3-34.934,13-57c2.052-26.644,3.675-50.855,13-70
		c1.47-3.018,3.25-6.078,5.183-9.1c5.478-8.566,12.213-16.822,16.817-22.9c-3.195,7.573-4.984,15.301-5.538,22.968
		c-3.855,53.364,52.2,103.753,111.538,78.032C194.641,278.607,223.8,295.287,252.669,294.905z"/>
	<path fill="#314D9C" d="M493.27,168.896c-0.545-2.158-1.122-4.298-1.77-6.396c-0.069-0.226-0.154-0.441-0.226-0.666
		c-19.126-14.458-79.222-45.986-239.666-46.087c0,0.007,0,0.014,0,0.021c0,33.013,0.903,149.312,1.139,179.134
		c28.388-0.406,56.463-17.311,48.752-50.403c58.579,22.583,114.284-20.094,110.758-76.093c-0.528-8.396-2.376-17.087-5.758-25.907
		c5.404,7.13,12.038,15.772,18.118,25.981c7.782,13.067,14.657,28.701,16.882,47.019c1.261,10.38,0.084,21.843,1,33
		c2.022,24.637,13.943,48.751,16,77c4.655,63.958-33.108,91.467-96,91c14.961,16.989,16.077,65.574-4,81
		c35.74,19.391,27.156,78.106,6,101c-9.992,10.813-34.445,24.365-57,29c-14.994,3.081-34.805,4.648-55,4.615V695.5h2
		c35.348-9.523,71.418-13.099,104-22c17.579-4.803,39.151-12.655,52-24c7.904-6.979,14.601-21.787,20-35
		c37.451-91.644,65.204-201.326,72-320v-61C499.371,213.152,498.538,189.756,493.27,168.896z"/>
	<path fill-rule="evenodd" clip-rule="evenodd" fill="#E5E5E5" d="M96.5,143.5c-25.436,60.281,38.137,130.416,106,101
		c-15.594,67.677,114.561,66.776,99,0c67.361,25.969,130.939-34.354,105-102c12.32,16.255,31.037,40.369,35,73
		c1.261,10.38,0.084,21.843,1,33c2.022,24.637,13.943,48.751,16,77c4.655,63.958-33.108,91.467-96,91
		c14.961,16.989,16.077,65.574-4,81c35.74,19.391,27.156,78.106,6,101c-9.992,10.813-34.445,24.365-57,29
		c-36.828,7.567-102.704,6.011-132-6c-10.67-4.375-23.716-11.995-31-18c-24.062-19.836-37.356-86.371,0-106
		c-17.712-16.004-20.531-63.516-2-81c-56.3,0.66-96.116-22.126-98-72c-0.521-13.78,1.908-28.207,4-42
		c2.844-18.753,11.3-34.934,13-57c2.052-26.644,3.675-50.855,13-70C80.136,163.929,90.271,151.722,96.5,143.5z"/>
	<path fill-rule="evenodd" clip-rule="evenodd" d="M116.5,286.5c13.558-0.996,35.704,4.016,59,8c17.813,3.047,42.106,8.492,44,23
		c1.898,14.546-16.724,40.317-28,45c-26.026,10.81-86.769-0.597-100-12c-9.908-8.539-13.183-26.016-7-41
		C89.07,298.424,101.345,287.613,116.5,286.5z"/>
	<path fill-rule="evenodd" clip-rule="evenodd" d="M380.5,286.5c3.733-0.188,14.715,0.468,20,3c14.143,6.774,31.665,33.958,16,56
		c-8.893,12.513-39.481,18.34-60,20c-32.053,2.594-50.035-1.725-63-22c-4.139-6.472-11.358-18.038-10-27
		c2.21-14.582,30.383-19.927,42-22C346.548,290.745,361.876,287.439,380.5,286.5z"/>
	<path fill-rule="evenodd" clip-rule="evenodd" d="M245.5,365.5c8.31-1.835,18.325,0.428,26,5c12.518,7.457,25.691,20.586,38,38
		c10.405,14.722,25.594,35.895,23,52c-2.784,17.286-29.602,24.269-51,26c-32.096,2.598-107.43,3.053-111-25
		c-1.557-12.236,13.838-36.951,20-46C203.365,396.606,222.217,370.642,245.5,365.5z"/>
	<path fill-rule="evenodd" clip-rule="evenodd" d="M182.5,532.5c20.158-4.31,45.991,0,76,0c23.124,0,80.742-10.696,78,18
		c-1.938,20.28-59.084,16-83,16c-14.717,0-30.946-0.285-47-1c-17.35-0.772-36.697-1.271-39-13
		C165.173,540.646,172.434,534.652,182.5,532.5z"/>
	<path fill="none" d="M301.5,244.5c15.561,66.776-114.594,67.677-99,0c-59.338,25.721-115.394-24.668-111.538-78.032L79.683,166.4
		c-1.933,3.022-3.713,6.082-5.183,9.1c-9.325,19.145-10.948,43.356-13,70c-1.7,22.066-10.156,38.247-13,57
		c-2.092,13.793-4.521,28.22-4,42c1.884,49.874,41.7,72.66,98,72c-18.531,17.484-15.712,64.996,2,81
		c-37.356,19.629-24.062,86.164,0,106c7.284,6.005,20.33,13.625,31,18c29.296,12.011,95.172,13.567,132,6
		c22.555-4.635,47.008-18.187,57-29c21.156-22.894,29.74-81.609-6-101c20.077-15.426,18.961-64.011,4-81
		c62.892,0.467,100.655-27.042,96-91c-2.057-28.249-13.978-52.363-16-77c-0.916-11.157,0.261-22.62-1-33
		c-2.225-18.318-9.1-33.952-16.882-47.019l-12.36-0.074C415.784,224.406,360.079,267.083,301.5,244.5z"/>
	<path fill="none" d="M252.669,294.905c-28.869,0.382-58.028-16.298-50.169-50.405c-59.338,25.721-115.394-24.668-111.538-78.032
		c0.554-7.667,2.343-15.395,5.538-22.968c-4.604,6.078-11.339,14.334-16.817,22.9c-1.933,3.022-3.713,6.082-5.183,9.1
		c-9.325,19.145-10.948,43.356-13,70c-1.7,22.066-10.156,38.247-13,57c-2.092,13.793-4.521,28.22-4,42
		c1.884,49.874,41.7,72.66,98,72c-18.531,17.484-15.712,64.996,2,81c-37.356,19.629-24.062,86.164,0,106
		c7.284,6.005,20.33,13.625,31,18c29.296,12.011,95.172,13.567,132,6c22.555-4.635,47.008-18.187,57-29
		c21.156-22.894,29.74-81.609-6-101c20.077-15.426,18.961-64.011,4-81c62.892,0.467,100.655-27.042,96-91
		c-2.057-28.249-13.978-52.363-16-77c-0.916-11.157,0.261-22.62-1-33c-2.225-18.318-9.1-33.952-16.882-47.019
		c-6.08-10.209-12.714-18.851-18.118-25.981c3.382,8.819,5.229,17.511,5.758,25.907c3.526,55.999-52.179,98.676-110.758,76.093
		c7.711,33.092-20.364,49.997-48.752,50.403c0.035,4.48,0.056,7.028,0.056,7.028L252.669,294.905z"/>
</g>
</svg>
