<?xml version="1.0" encoding="UTF-8" standalone="no"?>
<!-- Generator: Adobe Illustrator 11.0, SVG Export Plug-In . SVG Version: 6.0.0 Build 78)  -->
<!-- Created by Cary Bass http://commons.wikipedia.com/wiki/User:Bastique on January 20, 2006 -->
<svg xmlns:dc="http://purl.org/dc/elements/1.1/" xmlns:cc="http://web.resource.org/cc/" xmlns:rdf="http://www.w3.org/1999/02/22-rdf-syntax-ns#" xmlns:svg="http://www.w3.org/2000/svg" xmlns="http://www.w3.org/2000/svg" xmlns:sodipodi="http://sodipodi.sourceforge.net/DTD/sodipodi-0.dtd" xmlns:inkscape="http://www.inkscape.org/namespaces/inkscape" version="1.0" width="623.92822" height="548.17328" id="radioactive" sodipodi:version="0.32" inkscape:version="0.44" sodipodi:docname="warnungbrandfoerdernd.svg" sodipodi:docbase="C:\Dokumente und Einstellungen\henning\Desktop\Sicherheitszeichen">
  <defs id="defs58"/>
  <sodipodi:namedview inkscape:window-height="966" inkscape:window-width="1272" inkscape:pageshadow="2" inkscape:pageopacity="0.0" guidetolerance="10.0" gridtolerance="10.0" objecttolerance="10.0" borderopacity="1.0" bordercolor="#666666" pagecolor="#ffffff" id="base" inkscape:zoom="1.4064896" inkscape:cx="311.9641" inkscape:cy="274.08664" inkscape:window-x="0" inkscape:window-y="0" inkscape:current-layer="radioactive" inkscape:document-units="mm" gridspacingx="0.25mm" gridspacingy="0.25mm" grid_units="mm"/>
  <metadata id="metadata60">
    <rdf:RDF>
      <cc:Work rdf:about="">
        <dc:format>image/svg+xml</dc:format>
        <dc:type rdf:resource="http://purl.org/dc/dcmitype/StillImage"/>
      </cc:Work>
    </rdf:RDF>
  </metadata>
  <g id="g2907" transform="translate(15.37952,-9.607801)">
    <path id="path2889" d="M 295.84375,9.625 C 280.56684,9.7059068 270.50089,23.813625 265.0625,36.5 C 172.18368,198.06519 78.058421,358.93364 -14,520.9375 C -20.829463,540.11547 -1.0883658,561.5426 18.53125,557.21875 C 207.86361,556.9309 397.20493,557.89808 586.53125,556.65625 C 606.05502,553.39207 615.65348,526.10648 602.46875,511.28125 C 507.43559,347.23157 413.38004,182.58741 317.6875,18.9375 C 312.13891,12.888602 304.08329,9.328277 295.84375,9.625 z " style="fill:yellow"/>
    <g transform="translate(-3.188547,21.62979)" id="g4">
      <path id="sign_border" d="M 597.6,499.6 L 313.8,8 C 310.9,3 305.6,0 299.9,0 C 294.2,0 288.9,3.1 286,8 L 2.2,499.6 C -0.7,504.6 -0.7,510.7 2.2,515.6 C 5.1,520.6 10.4,523.6 16.1,523.6 L 583.7,523.6 C 589.4,523.6 594.7,520.5 597.6,515.6 C 600.5,510.6 600.5,504.5 597.6,499.6 z "/>
      <polygon points="43.9,491.5 299.9,48.2 555.9,491.5 43.9,491.5 " id="sign_bg" style="fill:#f7f619"/>
    </g>
  </g>
  <path style="fill:black;fill-opacity:1;stroke:none;stroke-width:0.63779527;stroke-linecap:butt;stroke-linejoin:bevel;stroke-miterlimit:4;stroke-dasharray:none;stroke-opacity:1" d="M 309.11463,139.57988 C 309.11463,139.57988 268.96064,162.63918 289.55057,238.96391 C 289.55057,238.96391 263.0429,223.39528 254.52291,228.36526 C 254.52291,228.36526 269.29229,249.62383 264.32232,286.1887 C 264.32232,286.1887 251.91075,280.09563 242.32578,260.92569 C 237.61097,266.8192 225.71389,283.01074 235.65385,319.93062 C 235.65385,319.93062 215.63679,300.5018 207.88887,306.552 C 217.20306,316.18737 221.61376,385.79965 222.37948,399.09034 C 222.35159,400.00857 222.34473,400.94539 222.34473,401.87032 C 222.34473,436.04178 241.51389,465.77509 269.67377,480.89104 L 205.66489,480.89104 L 205.66489,494.72141 L 418.26332,494.72141 L 418.26332,480.89104 L 354.21969,480.89104 C 381.10941,466.47811 399.81941,438.76765 401.47923,406.56152 L 401.96572,406.77002 C 409.0657,376.95013 388.24992,334.53137 417.35982,312.87643 C 408.48486,312.87643 397.52879,318.34634 390.42884,322.60634 C 398.1443,302.21512 395.27325,260.16 399.53325,251.99503 C 391.69107,251.99503 376.89699,255.6019 372.63701,269.09186 C 370.85782,274.72597 357.70648,218.5469 345.63652,212.86691 C 345.63652,212.86691 347.9758,239.47962 340.87582,243.02962 C 340.87582,243.02962 299.52965,188.5697 309.11463,139.57988 z M 332.29265,252.93327 C 333.70138,252.77067 335.84774,254.96183 337.40085,258.14572 C 339.17584,261.78445 340.15683,263.26439 338.82559,267.70188 C 337.49436,272.13935 333.7704,277.28804 332.08416,275.86805 C 330.39792,274.44806 332.1729,267.71765 332.08416,262.03768 C 331.99542,256.35768 330.40542,254.15277 331.73666,253.17652 C 331.90307,253.05449 332.09141,252.9565 332.29265,252.93327 z M 313.28459,268.43162 C 314.8821,268.60911 313.36583,274.38103 313.63209,279.79476 C 313.89834,285.20849 312.46334,285.02192 314.32708,290.08066 C 316.19081,295.1394 318.93852,294.96033 321.06851,300.01906 C 323.1985,305.0778 326.39074,307.90872 322.84075,310.30496 C 319.29075,312.70121 311.23939,313.7812 306.89065,309.60997 C 302.54192,305.43873 305.37717,301.25759 305.46592,293.62512 C 305.55465,285.99265 305.28565,285.36625 307.23815,279.06501 C 309.19066,272.76378 311.68709,268.25412 313.28459,268.43162 z M 279.82067,292.47838 C 281.13437,292.25217 282.33391,294.65441 284.16437,297.89933 C 286.11688,301.36057 286.56259,302.59676 287.36134,306.413 C 288.16008,310.22922 288.78134,310.66945 287.36134,313.15443 C 285.94134,315.63942 284.23614,315.37515 281.6624,316.3514 C 279.08864,317.32764 278.93918,318.20014 277.07544,317.04639 C 275.2117,315.89264 273.87097,315.90093 274.22597,311.7297 C 274.58096,307.55845 277.13419,305.15904 278.46543,300.36656 C 279.79667,295.57408 278.12267,293.20388 279.54267,292.58263 C 279.63142,292.5438 279.73309,292.49346 279.82067,292.47838 z M 345.25428,294.56336 C 345.50215,294.55505 345.71483,294.61361 345.91452,294.70236 C 347.512,295.41237 345.29328,298.5048 345.91452,303.56353 C 346.53576,308.62225 349.12649,311.90917 348.4165,314.92666 C 347.70651,317.94417 345.14104,316.45515 343.0998,315.65641 C 341.05856,314.85765 341.13783,315.45718 340.25033,311.7297 C 339.36281,308.0022 338.13535,305.00879 339.55533,300.7488 C 340.79784,297.02133 343.51915,294.62161 345.25428,294.56336 z M 366.97282,305.7875 C 367.36044,305.81437 367.79409,306.1226 368.2933,306.76049 C 369.8908,308.80173 370.16653,312.60891 371.14278,317.04639 C 372.11902,321.48386 371.74151,320.34633 372.18526,324.51757 C 372.62903,328.68882 373.98,332.78473 372.91501,333.76098 C 371.85002,334.73723 370.16455,332.40326 367.94581,328.40953 C 365.72708,324.4158 364.81784,322.65737 364.01909,317.77614 C 363.22034,312.8949 363.68384,311.66621 364.74884,308.91497 C 365.48102,307.0235 366.12003,305.72839 366.97282,305.7875 z M 249.58846,316.73365 C 251.30416,316.62717 252.48738,321.92164 254.00167,324.51757 C 255.86542,327.71257 256.8389,327.72403 255.7739,330.56401 C 254.70889,333.40401 252.65619,333.66197 249.72746,335.88071 C 246.79874,338.09944 244.06327,343.93598 244.06327,339.42518 C 244.06328,337.27976 245.81773,321.50362 248.30272,317.77614 C 248.76866,317.07723 249.19253,316.75822 249.58846,316.73365 z M 311.9641,332.232 C 350.40975,332.23198 381.60242,363.42466 381.60242,401.87032 C 381.60242,440.31596 350.40976,471.50864 311.9641,471.50864 C 273.51845,471.50863 242.32578,440.31597 242.32578,401.87032 C 242.32578,363.42466 273.51845,332.232 311.9641,332.232 z " id="path1934"/>
</svg>