<?xml version="1.0" encoding="UTF-8" standalone="no"?>
<!-- Created with Inkscape (http://www.inkscape.org/) -->
<svg xmlns:dc="http://purl.org/dc/elements/1.1/" xmlns:cc="http://creativecommons.org/ns#" xmlns:rdf="http://www.w3.org/1999/02/22-rdf-syntax-ns#" xmlns:svg="http://www.w3.org/2000/svg" xmlns="http://www.w3.org/2000/svg" version="1.1" width="600" height="525" id="svg3069">
  <metadata id="metadata3085">
    <rdf:RDF>
      <cc:Work rdf:about="">
        <dc:format>image/svg+xml</dc:format>
        <dc:type rdf:resource="http://purl.org/dc/dcmitype/StillImage"/>
        <dc:title/>
      </cc:Work>
    </rdf:RDF>
  </metadata>
  <defs id="defs3073"/>
  <path d="M 597.6,499.6 313.8,8 C 310.9,3 305.6,0 299.9,0 294.2,0 288.9,3.1 286,8 L 2.2,499.6 c -2.9,5 -2.9,11.1 0,16 2.9,5 8.2,8 13.9,8 h 567.6 c 5.7,0 11,-3.1 13.9,-8 2.9,-5 2.9,-11.1 0,-16 z" id="sign_border"/>
  <polygon points="43.875,491.5 299.875,48.2 555.875,491.5 " transform="matrix(1,0,0,0.99591458,0.125,2.0332437)" id="polygon7" style="fill:#f6bd16;fill-opacity:1;stroke:none;overflow:visible"/>
  <path d="m 326.54999,340.80001 c 0,14.746 -11.954,26.7 -26.7,26.7 -14.74601,0 -26.7,-11.954 -26.7,-26.7 0,-14.74601 11.95399,-26.7 26.7,-26.7 14.746,0 26.7,11.95399 26.7,26.7 z M 366.75,225 l -46.8,81.1 c 0.8,0.5 1.6,0.9 2.4,1.5 1.1,0.7 2.1,1.5 3.1,2.3 1,0.8 1.9,1.7 2.9,2.6 0.9,0.9 1.8,1.9 2.6,2.8 0.8,1 1.6,2 2.3,3.1 0.7,1.1 1.4,2.2 2,3.3 0.6,1.1 1.2,2.3 1.7,3.5 0.5,1.2 1,2.4 1.4,3.7 0.4,1.3 0.7,2.5 1,3.8 0.3,1.3 0.5,2.6 0.6,4 0.1,1.3 0.2,2.7 0.2,4.1 h 93.6 c -0.2,-49.2 -24.4,-91.2 -67,-115.8 z m -133.7,0 c -42.6,24.6 -66.8,66.6 -66.8,115.8 h 93.6 c 0,-1.4 0.1,-2.8 0.2,-4.1 0.1,-1.3 0.4,-2.7 0.6,-4 0.3,-1.3 0.6,-2.6 1,-3.8 0.4,-1.3 0.8,-2.5 1.4,-3.7 0.5,-1.2 1.1,-2.4 1.7,-3.5 0.6,-1.1 1.3,-2.2 2,-3.3 0.7,-1.1 1.5,-2.1 2.3,-3.1 0.8,-1 1.7,-1.9 2.6,-2.8 0.9,-0.9 1.9,-1.8 2.9,-2.6 1,-0.8 2,-1.6 3.1,-2.3 0.8,-0.5 1.6,-1 2.4,-1.5 l -47,-81.1 z m 46.8,150.5 -46.8,81.1 c 42.6,24.6 91.1,24.6 133.7,0 l -46.8,-81.1 c -0.3,0.2 -0.6,0.4 -0.9,0.6 -1.1,0.6 -2.3,1.2 -3.5,1.7 -1.2,0.5 -2.4,1 -3.7,1.4 -1.3,0.4 -2.5,0.7 -3.8,1 -1.3,0.3 -2.6,0.5 -4,0.6 -1.3,0.1 -2.7,0.2 -4.1,0.2 -1.4,0 -2.7,-0.1 -4.1,-0.2 -1.3,-0.1 -2.7,-0.3 -4,-0.6 -1.3,-0.3 -2.6,-0.6 -3.8,-1 -1.3,-0.4 -2.5,-0.8 -3.7,-1.4 -1.2,-0.5 -2.4,-1.1 -3.5,-1.7 -0.4,-0.2 -0.7,-0.4 -1,-0.6 z" id="circle4439"/>
</svg>