<?xml version="1.0" encoding="UTF-8" standalone="no"?>
<svg xmlns:svg="http://www.w3.org/2000/svg" xmlns="http://www.w3.org/2000/svg" version="1.1"
     width="420px" height="420px" viewBox="-10 -10 420 420">
    <defs id="def1" />
    <circle cx="200" cy="200" r="205" style="fill :#ffffff; stroke :#000000; stroke-width :2;" />
    <path d="M 182.89,399.59 C 182.68,399.4 179.65,398.94 176.17,398.58 141.72,395.01 101.49,377.92 73.5,354.98 64.967,347.99 48.095,330.67 41.857,322.5 19.962,293.83 5.5478,258.83 1.2939,224 0.29794,215.85 0.25911,186.86 1.2314,177.34 4.845,141.97 21.747,101.89 45.02,73.5 52.014,64.967 69.333,48.095 77.5,41.857 106.29,19.867 143.61,4.6696 177.24,1.2405 186.63,0.28249 214.6,0.28617 223.12,1.2466 257.43,5.1121 293.87,20.005 322.5,41.854 331.53,48.743 349.44,66.469 356.49,75.5 365.96,87.614 373.44,99.613 380.01,113.21 389.22,132.28 393.71,147.26 398.53,175 399.62,181.24 399.91,214.29 398.94,222 394.32,259 380.33,293.45 358.14,322.5 351.66,330.99 334.85,348.13 326,355.28 314.42,364.63 301.74,372.66 287.5,379.65 268.78,388.83 252.1,393.96 226,398.56 222.16,399.24 183.52,400.16 182.89,399.59 z M 197.48,363.95 C 196.61,361.2 198.48,359.19 202.6,358.41 207.32,357.53 211.42,360.19 210.57,363.58 210.1,365.46 210.36,366 211.73,365.98 215.54,365.94 235.3,363.03 235.88,362.42 236.22,362.07 235.49,361.1 234.25,360.27 228.97,356.72 233.72,351.84 240.77,353.58 243.85,354.34 244.56,354.99 244.83,357.34 245.11,359.87 245.44,360.11 247.83,359.51 253.9,358 262.94,352.79 266.86,348.54 270.19,344.92 271,343.31 271,340.27 270.99,333.7 265.99,328.12 255.13,322.55 251.97,320.93 251.86,320.71 253.43,319.16 254.99,317.61 255.64,317.78 262.99,321.65 267.32,323.93 271.12,325.54 271.43,325.23 271.75,324.92 272,318.87 272,311.78 L 272,298.89 275.87,293.2 C 281.72,284.57 287.46,272.53 290.99,261.45 295.66,246.86 295.58,247 298.73,246.98 307.31,246.91 317.11,237.47 324.9,221.78 334.82,201.79 337.84,180.69 332.35,169.78 330.57,166.25 324.28,162 320.83,162 319.34,162 317.79,161.46 317.38,160.81 316.98,160.15 316.76,155.05 316.9,149.47 317.47,126.56 310.32,102.75 296.87,82.749 291.47,74.717 276.28,59.53 268.25,54.129 233.31,30.636 191.01,27.673 153.73,46.108 123.86,60.881 102.71,87.369 94.321,120.5 92.315,128.42 91.721,133.56 91.46,145.24 91.279,153.35 90.886,160.38 90.587,160.86 90.289,161.34 88.266,162.02 86.093,162.37 81.005,163.18 75.586,168.22 74.118,173.51 70.446,186.74 75.729,210.04 86.505,228.14 93.821,240.42 102.24,246.97 110.73,246.99 112.35,247 113.13,247.76 113.58,249.75 116.76,263.8 123.46,279.67 131.38,291.92 L 136,299.06 136,312.53 C 136,323.3 136.28,326 137.38,326 138.14,326 139.24,325.42 139.83,324.71 140.42,324 143.6,322.12 146.9,320.55 151.88,318.17 153.17,317.9 154.44,318.95 156.38,320.56 155.69,321.67 151.68,323.4 146.49,325.62 140.19,330.73 138.43,334.14 131.64,347.26 150.37,360.05 182.85,364.48 197.26,366.44 198.26,366.41 197.48,363.95 z M 161.61,357.12 C 160.02,355.36 160.02,355.13 161.57,353.57 163.77,351.37 171.84,351.78 173.34,354.17 176.07,358.52 165.32,361.22 161.61,357.12 z M 187.58,354.68 C 186.59,353.96 185.94,352.53 186.14,351.51 186.85,347.85 196.3,347.25 199.15,350.68 202.16,354.3 191.91,357.85 187.58,354.68 z M 209.09,354.18 C 206.85,349.99 215.96,347.02 220.56,350.44 223.85,352.88 221.29,355.44 215.21,355.8 211.03,356.05 209.94,355.76 209.09,354.18 z M 226.44,349.56 C 224.89,348.4 224.72,347.76 225.61,346.31 226.45,344.93 227.98,344.5 232,344.5 236.02,344.5 237.55,344.93 238.39,346.31 239.9,348.77 236.86,351 232,351 230.01,351 227.51,350.35 226.44,349.56 z M 170.44,348.56 C 168.91,347.42 168.73,346.75 169.58,345.35 171.95,341.49 181.17,341.68 182.69,345.63 184.13,349.39 174.63,351.67 170.44,348.56 z M 253.23,346 C 251.98,345.48 250.67,344.3 250.32,343.38 248.81,339.45 257.82,337.41 261.94,340.75 263.77,342.24 263.9,342.76 262.8,344.24 261.2,346.37 256.28,347.28 253.23,346 z M 145.86,343 143.5,341 145.86,339 C 148.69,336.6 152.73,336.42 155.78,338.56 158.73,340.62 158.59,342.83 155.43,344.02 151.5,345.52 148.45,345.2 145.86,343 z M 199.44,343.56 C 197.89,342.4 197.72,341.76 198.61,340.31 199.45,338.93 200.98,338.5 205,338.5 209.02,338.5 210.55,338.93 211.39,340.31 212.9,342.77 209.86,345 205,345 203.01,345 200.51,344.35 199.44,343.56 z M 228.75,339.92 C 224.2,337.27 228.5,333.72 235.68,334.2 240.97,334.54 243.26,336.77 241.07,339.42 239.56,341.23 231.56,341.56 228.75,339.92 z M 168.93,338.42 C 167.98,337.27 167.9,336.38 168.67,335.17 170.23,332.69 180.85,332.8 182.39,335.31 183.28,336.76 183.11,337.4 181.56,338.56 178.89,340.54 170.62,340.45 168.93,338.42 z M 212.22,332.44 C 210.48,331.22 210.21,330.48 210.97,329.06 213.1,325.08 225,325.94 225,330.06 225,333.87 216.51,335.45 212.22,332.44 z M 186.99,331.19 C 184.89,329.49 184.86,329.28 186.45,327.69 188.71,325.43 197.24,325.38 199.48,327.62 203.76,331.91 192.02,335.27 186.99,331.19 z M 240.18,329.94 C 236.69,328.54 237.61,324.82 241.75,323.64 245.99,322.43 251.36,323.93 251.85,326.47 252.58,330.27 245.93,332.25 240.18,329.94 z M 163.01,329.14 C 159.93,328.24 159.16,325.09 161.58,323.32 163.73,321.74 169.37,321.59 172.07,323.04 173.97,324.06 174.72,327.44 173.24,328.35 171.63,329.35 165.38,329.83 163.01,329.14 z M 202.35,322.01 C 198.97,320.64 198.44,318.87 200.84,316.93 202.03,315.97 203,314.85 203,314.44 203,314.03 197.49,314.05 190.75,314.48 172.61,315.65 169.73,315.63 169.29,314.34 168.58,312.26 178.07,310.89 197.36,310.31 209.95,309.92 219.65,310.16 226.53,311 237.98,312.42 240.2,313.2 238.24,315.16 237.26,316.14 234.98,316.14 227.25,315.19 221.89,314.52 215.81,313.99 213.75,313.99 209.73,314 208.72,315.46 212,316.5 214.55,317.31 214.59,320.61 212.07,321.96 209.77,323.19 205.34,323.21 202.35,322.01 z M 138.67,282.33 C 136.47,280.14 138.39,277.89 145.25,274.62 177.7,259.17 234.2,259.77 265.82,275.91 268.63,277.34 270,278.7 270,280.05 270,283.2 267.63,283.35 262.16,280.58 249.03,273.93 232.21,270.26 210.5,269.33 187.32,268.33 163.71,272.19 148.15,279.53 140.37,283.2 139.72,283.39 138.67,282.33 z M 101.74,229.95 C 90.514,217.12 81.665,189.41 84.994,177.52 86.893,170.74 90.863,169.51 94.955,174.45 96.746,176.6 101.34,176.39 103.46,174.05 105.02,172.32 105.1,171.38 104.11,165.72 103.5,162.21 103,153.48 103,146.32 103,125.85 108.12,108.48 119.21,91.34 132.18,71.299 153.99,55.55 178,48.879 185.44,46.813 188.69,46.516 204,46.509 223.49,46.499 228.71,47.452 243.82,53.775 255.49,58.662 266.15,65.915 275.58,75.384 288.58,88.448 297.32,103.34 302.06,120.5 304.81,130.48 305.84,153.5 304.03,164.72 302.95,171.41 303,172.35 304.57,174.08 306.97,176.73 310.89,176.48 314.04,173.46 316.27,171.33 317.09,171.09 319.29,171.92 329.81,175.92 320.49,215.03 305.14,231.25 301.32,235.29 297.83,236.06 294.47,233.6 291.61,231.51 291.1,223.99 290.4,173 290.05,147.97 289.36,127 288.87,126.38 287.31,124.43 265.51,119.99 242,116.84 227.01,114.83 179.6,115.1 162.88,117.3 146.08,119.5 121.4,124.42 119.59,125.92 118.52,126.81 118.12,136.2 117.62,172.27 116.9,223.7 116.38,231.52 113.54,233.59 109.75,236.37 106.46,235.35 101.74,229.95 z M 147.5,195.21 C 128.29,185.9 124.37,165.05 139.25,151.34 151.49,140.06 173.4,140.28 185.33,151.8 196.23,162.32 196.75,176.8 186.63,187.78 180.14,194.83 174.26,197.31 163,197.75 154.16,198.09 153.08,197.91 147.5,195.21 z M 232.59,195.58 C 225.9,192.77 219.84,187.4 216.69,181.5 213.69,175.87 213.71,165.11 216.74,159.37 219.73,153.69 227.09,147.49 233.85,144.94 238.42,143.22 241.04,142.89 247.5,143.24 258.15,143.81 264.56,146.65 270.91,153.59 280.71,164.32 280.3,178.47 269.88,188.89 263.73,195.03 258.01,197.29 247.5,197.71 239.67,198.02 237.73,197.75 232.59,195.58 z" style="fill:#004488; stroke :none;" />
</svg>
