<?xml version="1.0" encoding="UTF-8" standalone="no"?>
<!-- Created with Inkscape (http://www.inkscape.org/) -->
<svg
   xmlns:dc="http://purl.org/dc/elements/1.1/"
   xmlns:cc="http://web.resource.org/cc/"
   xmlns:rdf="http://www.w3.org/1999/02/22-rdf-syntax-ns#"
   xmlns:svg="http://www.w3.org/2000/svg"
   xmlns="http://www.w3.org/2000/svg"
   xmlns:xlink="http://www.w3.org/1999/xlink"
   xmlns:sodipodi="http://sodipodi.sourceforge.net/DTD/sodipodi-0.dtd"
   xmlns:inkscape="http://www.inkscape.org/namespaces/inkscape"
   width="411.38049"
   height="329.64038"
   id="svg2"
   sodipodi:version="0.32"
   inkscape:version="0.45.1"
   sodipodi:docbase="/Users/johnolsen/Desktop"
   sodipodi:docname="TheresaKnott_scissors_wide_open.svg"
   inkscape:output_extension="org.inkscape.output.svg.inkscape"
   version="1.0">
  <defs
     id="defs4">
    <linearGradient
       id="linearGradient5929">
      <stop
         style="stop-color:#8e8e8b;stop-opacity:1;"
         offset="0"
         id="stop5931" />
      <stop
         style="stop-color:#c3c0c5;stop-opacity:1;"
         offset="1"
         id="stop5933" />
    </linearGradient>
    <linearGradient
       id="linearGradient4901">
      <stop
         style="stop-color:#ffffff;stop-opacity:1;"
         offset="0"
         id="stop4903" />
      <stop
         style="stop-color:#616161;stop-opacity:1;"
         offset="1"
         id="stop4905" />
    </linearGradient>
    <linearGradient
       id="linearGradient4020">
      <stop
         style="stop-color:#ffffff;stop-opacity:1;"
         offset="0"
         id="stop4022" />
      <stop
         style="stop-color:#c0c0c0;stop-opacity:1;"
         offset="1"
         id="stop4024" />
    </linearGradient>
    <linearGradient
       inkscape:collect="always"
       xlink:href="#linearGradient4020"
       id="linearGradient4026"
       x1="209.88564"
       y1="314.44403"
       x2="256.27609"
       y2="381.36194"
       gradientUnits="userSpaceOnUse"
       gradientTransform="translate(-574.1882,-103.9098)" />
    <linearGradient
       inkscape:collect="always"
       xlink:href="#linearGradient4901"
       id="linearGradient4907"
       x1="-168.31387"
       y1="71.624519"
       x2="294.56177"
       y2="330.81357"
       gradientUnits="userSpaceOnUse"
       gradientTransform="translate(-517.6906,11.38116)" />
    <radialGradient
       inkscape:collect="always"
       xlink:href="#linearGradient5929"
       id="radialGradient5938"
       gradientUnits="userSpaceOnUse"
       gradientTransform="matrix(0.757271,-8.946456e-6,9.803999e-6,0.633101,-528.3405,61.49876)"
       cx="992.68909"
       cy="111.54775"
       fx="1001.483"
       fy="117.51794"
       r="19.209267" />
    <linearGradient
       inkscape:collect="always"
       xlink:href="#linearGradient4020"
       id="linearGradient6851"
       gradientUnits="userSpaceOnUse"
       gradientTransform="matrix(0.505075,0.180338,-0.157515,0.441155,151.0349,-63.04269)"
       x1="209.88564"
       y1="314.44403"
       x2="256.27609"
       y2="381.36194" />
    <linearGradient
       inkscape:collect="always"
       xlink:href="#linearGradient4020"
       id="linearGradient7732"
       gradientUnits="userSpaceOnUse"
       gradientTransform="matrix(0.505075,0.180338,-0.157515,0.441155,151.0349,-63.04269)"
       x1="209.88564"
       y1="314.44403"
       x2="256.27609"
       y2="381.36194" />
    <radialGradient
       inkscape:collect="always"
       xlink:href="#linearGradient5929"
       id="radialGradient7734"
       gradientUnits="userSpaceOnUse"
       gradientTransform="matrix(0.757271,-8.946456e-6,9.803999e-6,0.633101,-503.9729,109.0735)"
       cx="992.68909"
       cy="111.54775"
       fx="1001.483"
       fy="117.51794"
       r="19.209267" />
  </defs>
  <sodipodi:namedview
     id="base"
     pagecolor="#ffffff"
     bordercolor="#666666"
     borderopacity="1.0"
     inkscape:pageopacity="0.0"
     inkscape:pageshadow="2"
     inkscape:zoom="1.195242"
     inkscape:cx="205.69025"
     inkscape:cy="164.8202"
     inkscape:document-units="px"
     inkscape:current-layer="layer2"
     inkscape:window-width="791"
     inkscape:window-height="581"
     inkscape:window-x="150"
     inkscape:window-y="58" />
  <metadata
     id="metadata7">
    <rdf:RDF>
      <cc:Work
         rdf:about="">
        <dc:format>image/svg+xml</dc:format>
        <dc:type
           rdf:resource="http://purl.org/dc/dcmitype/StillImage" />
      </cc:Work>
    </rdf:RDF>
  </metadata>
  <g
     inkscape:label="bottom"
     inkscape:groupmode="layer"
     id="layer1"
     transform="translate(-49.898204,-0.8970267)">
    <g
       id="g4916"
       transform="matrix(0.536305,0,0,0.468432,422.3375,70.99815)">
      <path
         id="path3145"
         d="M -211.37622,224.91331 L -215.14624,272.0386 L -571.41339,218.31577 C -571.41339,218.31577 -573.2984,219.25828 -583.66596,217.37327 C -594.03352,215.48826 -664.72145,201.35067 -673.204,196.63814 C -681.68655,191.92562 -694.88163,187.21309 -693.93913,183.44307 C -692.99662,179.67304 -688.28409,167.42047 -655.2964,172.133 C -622.3087,176.84553 -340.4995,199.46566 -340.4995,199.46566 L -211.37622,224.91331 z "
         style="fill:url(#linearGradient4907);fill-opacity:1;fill-rule:evenodd;stroke:#000000;stroke-width:1px;stroke-linecap:butt;stroke-linejoin:miter;stroke-opacity:1" />
      <path
         id="path1356"
         d="M -4.9761961,200.86502 C -55.809396,201.17765 -106.36729,207.22345 -157.02209,210.74965 C -175.50159,212.67141 -193.09749,219.02727 -211.49659,221.39896 C -222.99819,221.62058 -229.02929,228.45309 -227.49689,239.60613 C -228.32029,249.47279 -228.84859,259.36186 -229.71589,269.22506 C -219.26139,279.22691 -203.22069,275.47042 -190.45599,280.06658 C -172.28459,285.65526 -162.66859,307.45695 -142.45489,308.06133 C -130.03989,309.03951 -117.65109,310.27631 -105.33629,311.88891 C -76.753096,313.09338 -47.804696,315.82412 -19.499896,310.21284 C 1.5301039,308.84541 20.993904,300.05168 40.367004,292.57011 C 62.895404,281.15532 78.267204,253.54794 69.769704,228.63312 C 65.170104,212.5802 48.812704,204.1622 33.236104,202.43626 C 20.588604,200.53215 7.7610037,201.21733 -4.9761961,200.86502 z M -3.3824961,232.20877 C 10.297204,233.05583 28.692504,229.97203 36.638104,244.25161 C 43.803404,259.24043 34.489004,277.30879 20.128804,283.96745 C -0.61079606,294.01689 -24.281696,295.40676 -46.908396,297.10046 C -73.698196,297.80125 -102.2703,300.23975 -127.05509,287.95296 C -138.46289,281.87688 -149.32679,268.38396 -145.13099,254.94775 C -135.68579,247.01277 -122.10459,243.73086 -110.09639,240.50811 C -93.265296,237.71602 -76.098796,237.84694 -59.225596,235.6298 C -40.572296,235.18355 -21.996896,233.24326 -3.3824961,232.20877 z "
         style="fill:#ef6d4b;stroke:#000000;stroke-opacity:1" />
    </g>
    <path
       style="fill:#000000;fill-opacity:1;fill-rule:nonzero;stroke:none;stroke-width:1px;stroke-linecap:butt;stroke-linejoin:miter;stroke-opacity:1"
       d="M 451.39844,119.96397 C 449.61153,120.67688 449.12955,120.95862 451.39844,119.96397 z "
       id="path5945" />
  </g>
  <g
     inkscape:groupmode="layer"
     id="layer2"
     inkscape:label="top"
     transform="translate(-49.898204,-0.8970267)">
    <g
       id="g7728"
       transform="matrix(0.576636,-0.817002,0.817002,0.576636,11.40169,287.7257)">
      <path
         sodipodi:nodetypes="csssscccsc"
         id="path3143"
         d="M 226.79845,144.89575 C 226.79845,144.89575 129.39923,129.8616 58.34744,119.97755 C 44.891185,118.10564 34.917381,115.85539 27.168682,110.902 C 24.797375,109.38613 16.973483,102.60431 36.926935,103.28836 C 56.880382,103.9724 106.48916,106.4611 129.15773,109.02806 C 174.49488,114.16196 228.94995,119.53676 228.94995,119.53676 L 279.2473,98.778261 L 289.83543,124.32676 C 290.54578,120.64916 270.04377,125.32932 249.8632,133.16711 C 235.0821,138.90785 226.79845,144.89575 226.79845,144.89575 z "
         style="fill:url(#linearGradient7732);fill-opacity:1;fill-rule:evenodd;stroke:#000000;stroke-width:0.50122082px;stroke-linecap:butt;stroke-linejoin:miter;stroke-opacity:1" />
      <path
         sodipodi:nodetypes="ccccccccccccccccccccc"
         id="path3121"
         d="M 372.96231,47.174641 C 363.29411,45.599243 353.48245,46.48404 344.15518,48.016651 C 331.46856,51.516645 325.17375,62.429598 317.25368,70.893164 C 309.75741,79.13159 300.65264,86.388826 289.50062,90.563914 C 282.99639,93.711748 276.00015,96.256488 270.30249,100.49881 C 268.0898,105.92536 273.95703,110.88039 275.32095,116.12524 C 276.36183,120.97772 281.222,126.10154 286.99281,123.7366 C 295.3706,121.64174 303.26368,118.42052 311.53779,116.10662 C 319.08334,112.97004 327.52151,111.68874 335.60597,109.83781 C 341.54725,109.73736 348.31272,107.58243 353.84221,110.79262 C 360.06795,114.36443 366.45095,120.4295 374.2513,118.79781 C 382.2003,117.28546 386.38291,110.60958 389.58138,104.60665 C 395.82152,95.268588 402.61689,84.594286 399.25706,72.781624 C 396.5378,60.927322 386.08146,50.594751 372.96231,47.174641 z M 366.43279,56.416456 C 379.59843,59.865531 390.57542,73.262728 386.25704,85.070215 C 383.85378,93.067635 376.09244,98.63147 367.2398,100.50917 C 360.05899,102.50431 350.81502,100.84973 346.17929,94.588677 C 338.27877,85.779764 338.93818,73.61752 343.43729,64.414511 C 347.03796,57.445545 356.35117,52.920233 365.20458,56.08424 L 366.43279,56.416456 z "
         style="fill:#ef6d4b;stroke:#000000;stroke-width:0.69999999;stroke-miterlimit:4;stroke-dasharray:none;stroke-opacity:1" />
    </g>
  </g>
  <g
     inkscape:groupmode="layer"
     id="layer3"
     inkscape:label="pivot"
     transform="translate(-49.898204,-0.8970267)">
    <path
       style="fill:url(#radialGradient7734);fill-opacity:1;stroke:#000000;stroke-opacity:1"
       d="M 244.45286,188.04985 C 239.1095,186.02829 236.47474,181.09979 238.30933,176.55802 C 239.34917,173.98382 240.36155,173.03681 243.61349,171.59647 C 248.17064,169.57806 253.51937,170.84554 256.2881,174.59994 C 257.8155,176.67106 257.92962,177.1022 257.71113,179.97566 C 257.39514,184.13147 256.18958,185.88309 252.52662,187.50849 C 249.2698,188.95365 247.20733,189.09195 244.45286,188.04985 z "
       id="path4994" />
  </g>
</svg>
