<?xml version="1.0" encoding="UTF-8" standalone="no"?>
<!-- Created with Inkscape (http://www.inkscape.org/) -->

<svg
   xmlns:dc="http://purl.org/dc/elements/1.1/"
   xmlns:cc="http://creativecommons.org/ns#"
   xmlns:rdf="http://www.w3.org/1999/02/22-rdf-syntax-ns#"
   xmlns:svg="http://www.w3.org/2000/svg"
   xmlns="http://www.w3.org/2000/svg"
   xmlns:sodipodi="http://sodipodi.sourceforge.net/DTD/sodipodi-0.dtd"
   xmlns:inkscape="http://www.inkscape.org/namespaces/inkscape"
   width="32"
   height="32"
   id="svg2"
   version="1.1"
   inkscape:version="0.48.1 r9760"
   sodipodi:docname="favicon.svg">
  <defs
     id="defs4" />
  <sodipodi:namedview
     id="base"
     pagecolor="#ffffff"
     bordercolor="#666666"
     borderopacity="1.0"
     inkscape:pageopacity="0.0"
     inkscape:pageshadow="2"
     inkscape:zoom="8"
     inkscape:cx="25.646151"
     inkscape:cy="1.5875959"
     inkscape:document-units="px"
     inkscape:current-layer="layer1"
     showgrid="false"
     inkscape:window-width="1600"
     inkscape:window-height="819"
     inkscape:window-x="0"
     inkscape:window-y="28"
     inkscape:window-maximized="1" />
  <metadata
     id="metadata7">
    <rdf:RDF>
      <cc:Work
         rdf:about="">
        <dc:format>image/svg+xml</dc:format>
        <dc:type
           rdf:resource="http://purl.org/dc/dcmitype/StillImage" />
        <dc:title></dc:title>
      </cc:Work>
    </rdf:RDF>
  </metadata>
  <g
     inkscape:label="Layer 1"
     inkscape:groupmode="layer"
     id="layer1"
     transform="translate(0,-1020.3622)">
    <path
       inkscape:connector-curvature="0"
       id="path2998"
       d="m 56.703438,1045.6549 -11.666729,-0.1716 0,-2.097 c 0,-3.0999 1.259976,-5.0359 3.277563,-5.0359 2.77156,-0.9133 5.442228,0.013 8.530361,0 4.593203,0 6.340147,-0.2008 6.48096,-0.7452 0.106035,-0.41 0.317581,-2.3801 0.470112,-4.3781 l 0.277336,-3.6327 -4.625669,-0.6924 -4.625664,-0.6924 -1.969306,2.6014 c -0.733126,0.9685 -0.966703,1.5783 -1.066658,1.8928 -0.168081,0.5288 -0.920231,-0.1648 -1.007701,0.6094 0.02721,1.7565 -0.06582,1.2305 -0.035,4.1807 -0.349264,-5.264 0.0901,-4.4965 -2.439241,-4.6785 -0.606634,-0.044 -0.293026,-0.7356 -0.439016,-2.0012 -0.571812,-4.9571 -0.408561,-6.7724 0.651144,-7.2397 0.533634,-0.2354 6.266906,-0.3516 12.7406,-0.2584 l 11.770353,0.1699 0.217122,1.3496 c 0.119422,0.7422 0.119542,2.3426 2.73e-4,3.5565 -0.171063,1.7412 -0.433347,2.2072 -1.242025,2.2072 -0.995038,0 -1.015406,0.217 -0.693037,7.382 0.329031,7.3133 0.321564,7.3853 -0.801668,7.7428 -0.623586,0.1985 -1.359598,0.3029 -1.635585,0.2317 -0.275987,-0.072 -5.751824,-0.2066 -12.168523,-0.3009 z"
       style="fill:#ff6600;stroke:#000000;stroke-width:0.1;stroke-miterlimit:4;stroke-opacity:1;stroke-dasharray:none"
       sodipodi:nodetypes="scsccsscccssccsssscssssscs" />
    <g
       id="g3769"
       transform="translate(-56.75,44.625)">
      <path
         sodipodi:nodetypes="csccc"
         inkscape:connector-curvature="0"
         id="path2991"
         d="m 5.3688409,1033.1735 c 0,0 -4.87275915,-3.773 -3.4208136,-5.0507 1.2329287,-1.085 3.8883125,4.6503 3.8883125,4.6503 l 13.3480302,15.8903 z"
         style="fill:#ff6600;fill-opacity:1;stroke:#000000;stroke-width:0.1;stroke-linecap:round;stroke-linejoin:round;stroke-miterlimit:4;stroke-opacity:1;stroke-dasharray:none" />
      <path
         sodipodi:nodetypes="csc"
         inkscape:connector-curvature="0"
         id="path3761"
         d="m 4.6789643,1031.7785 c 0,0 -2.8552233,-2.86 -2.4411988,-3.1872 0.382208,-0.302 2.4411988,3.1872 2.4411988,3.1872 z"
         style="fill:#ffffff;fill-opacity:1;stroke:#000000;stroke-width:0.1;stroke-linecap:round;stroke-linejoin:round;stroke-miterlimit:4;stroke-opacity:1;stroke-dasharray:none" />
    </g>
    <path
       inkscape:connector-curvature="0"
       id="path3792"
       d="m 2.7654055,1028.7652 c -0.3117176,0.064 -0.4474994,0.1172 -0.674716,0.2408 -0.3430036,0.1856 -0.7609634,0.6021 -0.8798606,0.8759 -0.1795347,0.4126 -0.1184949,1.0779 0.1443874,1.5806 0.1366158,0.2614 0.4022451,0.5971 0.6598403,0.8339 0.5287849,0.4867 1.2212315,0.7539 2.235085,0.8623 0.3538995,0.037 1.2354625,0.039 1.4328034,0 0.1860427,-0.039 0.8167953,-6e-4 1.1554193,0.062 0.5972306,0.1112 1.2318292,0.3392 1.823554,0.6544 0.4103242,0.2186 1.2395747,0.7816 1.3377814,0.9082 0.024868,0.032 0.1209283,0.1293 0.2148743,0.2187 0.09458,0.089 0.39923,0.3985 0.678429,0.688 0.279095,0.2894 0.632175,0.6541 0.784378,0.8102 0.495015,0.5079 0.661587,0.694 0.664912,0.7421 0.0038,0.066 -0.376535,1.3118 -0.413917,1.3544 -0.01344,0.022 -0.178263,0.071 -0.35915,0.1137 l -0.328664,0.079 -0.719566,-0.065 c -1.1605254,-0.1041 -1.7807949,-0.1288 -2.3456075,-0.092 -0.4998579,0.032 -0.5018313,0.032 -0.8238735,0.1579 -0.8920294,0.3517 -2.7136207,1.2818 -4.1869391,2.1372 -1.4505066,0.8426 -1.9989066,1.2561 -2.21108895,1.6672 -0.12263685,0.2365 -0.15129167,0.3696 -0.13644668,0.6153 0.023342,0.3728 0.18367423,0.6757 0.51815993,0.9779 0.7070844,0.6394 1.6999328,0.8656 2.9246023,0.6656 0.6896569,-0.1137 1.1735815,-0.2568 1.9146588,-0.5716 1.134427,-0.4817 1.8889959,-0.9488 2.6698665,-1.6534 0.6774407,-0.6111 1.3531952,-1.4425 1.5604422,-1.9201 0.08331,-0.1914 0.273417,-0.4044 0.437423,-0.4882 0.123896,-0.064 0.217024,-0.083 0.644033,-0.133 0.556366,-0.058 0.751036,-0.099 1.149305,-0.2251 0.276607,-0.09 0.494281,-0.2011 0.641724,-0.3255 0.109481,-0.09 1.829648,-1.1926 1.867944,-1.195 0.02569,0 1.252604,0.2402 1.758469,0.3472 0.156118,0.033 1.921284,0.378 2.372354,0.4639 0.04013,0.013 0.550731,0.1077 1.134923,0.2201 1.607647,0.3121 3.219338,0.5989 3.619872,0.6442 0.08056,0.013 0.268736,0.034 0.420636,0.058 0.507641,0.076 1.114198,0.1564 1.377074,0.1842 0.403497,0.043 1.373917,-0.013 2.162965,-0.1204 0.195486,-0.028 0.535856,-0.074 0.755232,-0.1029 0.482737,-0.064 1.033667,-0.1783 1.579617,-0.326 0.623791,-0.1736 1.333049,-0.4564 1.306259,-0.5222 -0.0087,-0.018 -0.450006,-0.12 -0.985883,-0.2321 -0.535797,-0.1112 -2.016518,-0.4217 -3.290467,-0.6889 -1.273912,-0.2673 -2.525758,-0.5256 -2.781863,-0.5747 -0.256098,-0.048 -0.537832,-0.1077 -0.62632,-0.1312 -0.2452,-0.065 -2.064008,-0.4434 -2.228575,-0.4635 -0.08056,-0.012 -0.269485,-0.047 -0.422204,-0.085 -0.152248,-0.037 -0.355934,-0.083 -0.452236,-0.1042 -0.09605,-0.02 -0.207482,-0.044 -0.247762,-0.056 -0.04013,-0.013 -0.387731,-0.085 -0.772175,-0.1659 -1.188504,-0.2496 -1.248161,-0.2637 -1.261468,-0.2968 -0.008,-0.018 0.115194,-0.1136 0.271614,-0.2138 0.156796,-0.098 0.545866,-0.347 0.865137,-0.5494 0.319121,-0.2026 0.835339,-0.532 1.146885,-0.7325 0.311696,-0.2001 0.65974,-0.4224 0.773707,-0.4937 0.114296,-0.073 1.264672,-0.8027 2.556681,-1.626 1.292111,-0.823 2.492251,-1.5862 2.667006,-1.696 0.17578,-0.1101 0.423562,-0.2709 0.552412,-0.3583 0.127703,-0.088 0.299051,-0.1956 0.379317,-0.2395 0.08052,-0.045 0.198509,-0.1208 0.262855,-0.1714 0.06492,-0.05 0.173828,-0.1205 0.24302,-0.1553 0.174856,-0.09 2.134946,-1.342 2.177567,-1.3899 0.02204,-0.036 0.0089,-0.071 -0.104404,-0.205 -0.148685,-0.1769 -0.15434,-0.1797 -0.418953,-0.2085 -0.510662,-0.056 -2.140504,0.02 -3.339423,0.1536 l -0.613794,0.069 -0.499278,0.2889 c -0.274563,0.1593 -0.804768,0.4707 -1.178164,0.6929 -0.373205,0.2224 -1.252456,0.7412 -1.953844,1.1532 -0.701286,0.4119 -2.035727,1.2002 -2.965473,1.7514 -0.929722,0.5515 -1.877467,1.1135 -2.106092,1.2491 -0.228401,0.1353 -0.440507,0.2618 -0.471032,0.2805 -0.03084,0.019 -0.473527,0.2771 -0.98422,0.5741 -0.510969,0.2971 -1.015289,0.6032 -1.120853,0.6804 l -0.191476,0.1409 -0.218553,-0.036 c -0.505689,-0.085 -1.248824,-0.3181 -1.921583,-0.6023 -0.893183,-0.3773 -1.488567,-0.6918 -2.4214891,-1.2788 -0.5662582,-0.3564 -1.2039648,-0.9732 -1.7341138,-1.6773 -0.2479083,-0.3293 -0.6211236,-0.8989 -0.7216077,-1.1015 -0.1295743,-0.2613 -0.7220597,-0.8432 -1.2044356,-1.1831 -0.3206509,-0.226 -0.8187604,-0.51 -1.0725509,-0.6116 -0.5235581,-0.2098 -1.7860405,-0.2754 -2.4516459,-0.1277 z m 1.4554673,0.5063 c 0.1356469,0.013 0.3670669,0.056 0.5151773,0.096 0.7238343,0.1921 1.2505915,0.5507 1.7340842,1.1806 0.2533362,0.3303 0.2880554,0.4334 0.2643339,0.7894 -0.023862,0.3602 -0.1283309,0.5283 -0.4712375,0.7545 -0.7124437,0.4731 -2.0962414,0.4725 -3.1738439,0 -0.4272905,-0.1879 -0.930422,-0.5823 -1.110805,-0.8707 -0.2073827,-0.3313 -0.2620304,-0.7844 -0.1337055,-1.1063 0.1466707,-0.3689 0.5671443,-0.6467 1.166327,-0.7738 0.2621926,-0.055 0.9427932,-0.093 1.2090425,-0.06 z m 4.1552698,10.2692 c 0.2336951,0.092 0.3821924,0.2042 0.6210775,0.4634 0.1008082,0.1101 0.2543252,0.2734 0.3421317,0.3653 0.3784717,0.397 0.2987951,0.6409 -0.5069764,1.5489 -0.5249104,0.5916 -0.7606001,0.7944 -1.3266903,1.1389 -1.0381038,0.6322 -2.5201839,1.1561 -3.5854802,1.2677 -0.7707176,0.08 -1.3967546,-0.018 -1.9186777,-0.3022 -0.2170767,-0.1184 -0.3168533,-0.2131 -0.4069573,-0.386 -0.2185366,-0.4193 -0.1806054,-0.8468 0.1032335,-1.162 0.1102846,-0.1205 0.5750898,-0.3839 1.7279714,-0.9731 0.077396,-0.039 0.1638592,-0.089 0.1946968,-0.1066 0.031505,-0.02 0.1557765,-0.084 0.2790215,-0.1408 0.1222346,-0.059 0.5177766,-0.2569 0.8776304,-0.4415 0.3600017,-0.1843 0.7234001,-0.3687 0.8078561,-0.4098 1.7360421,-0.8441 1.9114232,-0.9137 2.3273599,-0.928 0.2354708,-0.014 0.2985313,0 0.4644657,0.069 z"
       style="fill:#ff6600;fill-opacity:1;stroke:#000000;stroke-width:0.09999997;stroke-linecap:round;stroke-linejoin:round;stroke-miterlimit:4;stroke-opacity:1;stroke-dasharray:none" />
  </g>
</svg>
