<?xml version="1.0" encoding="UTF-8"?>
<svg version="1.1" id="a-cloud" xmlns="http://www.w3.org/2000/svg" xmlns:xlink="http://www.w3.org/1999/xlink" height="100%" width="100%" preserveAspectRatio="xMaxYMax" x="0px" y="0px" viewBox="0 0 329.6667 88" enable-background="new 0 0 329.6667 88" xml:space="preserve">
	<clipPath id="cloud02" clipPathUnits="objectBoundingBox" transform="scale(0.003 0.0114)">
		<path d="M319.1588,64.8152c0.0541-0.6743,0.0894-1.3538,0.0894-2.0419c0-13.9323-11.2944-25.2267-25.2267-25.2267 c-3.0729,0-6.0168,0.5509-8.7401,1.5569c-4.4951-6.9367-12.2986-11.5302-21.1799-11.5302c-4.0878,0-7.9449,0.9784-11.3599,2.7043 c-5.7032-8.3604-15.3028-13.851-26.1868-13.851c-17.1151,0-31.0516,13.5743-31.6512,30.5432 c-5.2484,0.3062-9.9347,2.7011-13.2396,6.3681c-2.9987-3.217-7.271-5.2312-12.0159-5.2312c-2.4077,0-4.6921,0.5223-6.7525,1.453 c-3.0178-4.7508-8.3225-7.9063-14.3675-7.9063c-1.6664,0-3.2751,0.2438-4.7971,0.6904c0.4466-1.522,0.6904-3.1307,0.6904-4.7971 c0-9.3962-7.6171-17.0133-17.0133-17.0133c-2.2914,0-4.4755,0.4559-6.4706,1.2771c-1.7054-5.4976-6.831-9.4905-12.8894-9.4905 c-0.439,0-0.8726,0.0227-1.3008,0.0637C103.947,5.14,96.92,0,88.6882,0C78.696,0,70.4739,7.5706,69.4398,17.2885 c-3.06-2.0259-6.727-3.2085-10.6716-3.2085c-7.6829,0-14.3204,4.4753-17.4481,10.9613c-0.726-0.0695-1.461-0.1079-2.2052-0.1079 c-12.6363,0-22.88,10.2437-22.88,22.88c0,2.9462,0.563,5.7591,1.5771,8.3457C12.3172,57.5816-1.3072,63.5815,0.1015,88h328.5333 C328.6349,88,334.2807,67.4644,319.1588,64.8152z"/>
	</clipPath>
  <clipPath id="hexlike" clipPathUnits="objectBoundingBox"
   transform="scale(0.01)">
    <polygon points="50 0, 100 25, 100 75, 50 100, 0 75, 0 25" />
  </clipPath>
</svg>