<?xml version="1.0" encoding="UTF-8" standalone="no"?>
<!-- Created with Inkscape (http://www.inkscape.org/) -->
<svg
   xmlns:dc="http://purl.org/dc/elements/1.1/"
   xmlns:cc="http://web.resource.org/cc/"
   xmlns:rdf="http://www.w3.org/1999/02/22-rdf-syntax-ns#"
   xmlns:svg="http://www.w3.org/2000/svg"
   xmlns="http://www.w3.org/2000/svg"
   xmlns:sodipodi="http://sodipodi.sourceforge.net/DTD/sodipodi-0.dtd"
   xmlns:inkscape="http://www.inkscape.org/namespaces/inkscape"
   width="55.999447"
   height="65.645325"
   id="svg5296"
   sodipodi:version="0.32"
   inkscape:version="0.45.1"
   version="1.0"
   sodipodi:docbase="/home/marco/svg/2007"
   sodipodi:docname="moneybag.svg"
   inkscape:output_extension="org.inkscape.output.svg.inkscape">
  <defs
     id="defs5298" />
  <sodipodi:namedview
     id="base"
     pagecolor="#ffffff"
     bordercolor="#666666"
     borderopacity="1.0"
     inkscape:pageopacity="0.0"
     inkscape:pageshadow="2"
     inkscape:zoom="5.77345"
     inkscape:cx="30.754782"
     inkscape:cy="38.261504"
     inkscape:document-units="px"
     inkscape:current-layer="layer1"
     inkscape:window-width="791"
     inkscape:window-height="597"
     inkscape:window-x="23"
     inkscape:window-y="42" />
  <metadata
     id="metadata5301">
    <rdf:RDF>
      <cc:Work
         rdf:about="">
        <dc:format>image/svg+xml</dc:format>
        <dc:type
           rdf:resource="http://purl.org/dc/dcmitype/StillImage" />
      </cc:Work>
    </rdf:RDF>
  </metadata>
  <g
     inkscape:label="Livello 1"
     inkscape:groupmode="layer"
     id="layer1"
     transform="translate(-253.67644,-559.10727)">
    <g
       style="display:inline"
       id="g4876"
       transform="matrix(0.8592362,0,0,0.8592362,253.50772,380.98657)">
      <g
         id="g4804">
        <path
           transform="matrix(1.2487562,0,0,1.1435406,42.710199,-15.941792)"
           style="fill:#c17d11;fill-opacity:1;fill-rule:nonzero;stroke:none;stroke-width:1.79999995;stroke-linecap:butt;stroke-linejoin:round;stroke-miterlimit:4;stroke-dashoffset:0;stroke-opacity:1"
           d="M 17.765721,235.77715 C 17.765721,250.37818 7.0831075,261.17061 -6.875,261.17061 C -20.833107,261.17061 -33.909573,249.19518 -32.161427,234.71948 C -30.547164,221.35241 -20.946793,207.64612 -6.9891457,207.76976 C 7.0831075,207.89441 17.604295,221.02491 17.765721,235.77715 z "
           id="path4796"
           sodipodi:nodetypes="csssc" />
        <path
           style="fill:#c17d11;fill-opacity:1;fill-rule:evenodd;stroke:#000000;stroke-width:1px;stroke-linecap:butt;stroke-linejoin:miter;stroke-opacity:1"
           d="M 28.5,220.59448 C 27,218.34448 19.5,210.84448 19.5,210.84448 L 33.25,211.84448 L 30.25,215.34448 L 32.75,216.59448 L 42,213.59448 L 46.25,214.59448 L 52.5,212.59448 L 45.75,220.59448 L 41.5,222.59448 L 28.5,220.59448 z "
           id="path4798" />
        <path
           style="fill:#8f5902;fill-opacity:1;fill-rule:evenodd;stroke:none;stroke-width:1px;stroke-linecap:butt;stroke-linejoin:miter;stroke-opacity:1"
           d="M 22.25,210.59448 L 31,207.84448 L 32.75,210.09448 L 43.220971,208.40384 L 41,211.09448 L 41.75,211.99093 L 49.25,208.84448 L 53,209.09448 L 54,211.09448 L 52,213.34448 L 46.25,214.59448 L 42.5,213.34448 L 32.5,216.59448 L 30.25,215.34448 L 33.75,211.59448 L 22.25,210.59448 z "
           id="path4800"
           sodipodi:nodetypes="cccccccccccccccc" />
        <path
           style="fill:#edd400;fill-opacity:1;fill-rule:evenodd;stroke:#000000;stroke-width:0.60000002;stroke-linecap:butt;stroke-linejoin:miter;stroke-miterlimit:4;stroke-dasharray:none;stroke-opacity:1"
           d="M 25.698298,223.01094 C 25.963463,222.65738 28.019106,220.87966 28.019106,220.87966 L 41.896077,222.60323 L 54.889164,218.53737 L 58.424698,219.20028 L 57.761785,221.27741 L 45.21064,222.64743 L 40.923805,224.63616 L 25.698298,223.01094 z "
           id="path4802"
           sodipodi:nodetypes="ccccccccc" />
      </g>
      <path
         clip-rule="evenodd"
         d="M 35.200108,232.78681 C 35.652903,234.21544 36.125923,235.62384 36.924742,236.70644 C 40.394079,236.20284 42.032167,236.404 45.234342,237.17679 C 45.197968,238.10167 46.313179,237.87495 46.488621,238.58786 C 46.778673,239.76641 45.864304,239.74038 45.547912,240.31249 C 42.060702,240.94386 41.377277,237.26381 37.551882,238.90143 C 38.313229,240.49169 38.611748,242.54511 39.590086,243.91854 C 42.098174,243.59901 45.041967,244.1197 46.802191,245.17282 C 48.064466,245.9279 49.283469,246.74224 48.99718,248.77887 C 48.903736,249.44317 48.729861,250.65261 48.37004,251.44422 C 48.274872,251.65368 47.924771,251.67218 47.7429,251.91457 C 47.418826,252.34636 47.297161,253.10739 47.115761,253.32564 C 46.541615,254.01643 45.69623,253.98993 45.234342,255.05027 C 44.347723,254.89521 44.364343,255.64354 43.823278,255.83419 C 44.030548,256.68444 44.219944,258.03875 44.920772,258.81311 C 44.580863,260.00263 45.676789,260.9816 44.293633,261.32167 C 43.120411,260.35211 43.260107,258.06963 42.568999,256.61812 C 40.81536,256.82021 39.381405,257.37367 38.022237,257.55883 C 37.912644,259.43351 39.643236,260.64467 38.806161,262.26238 C 36.450154,262.27805 37.738456,258.60192 36.297603,257.55883 C 32.887845,257.78726 30.188949,257.56918 28.301573,255.99098 C 27.766152,254.9181 27.984554,253.57649 29.085497,253.32564 C 31.083721,252.87049 33.866182,257.07232 35.984033,255.52062 C 35.305311,253.743 35.238991,251.35297 34.259399,249.87637 C 29.583917,250.79246 24.967855,248.00373 26.576939,242.66426 C 27.482529,242.07538 27.919331,240.94731 28.771928,240.31249 C 29.292297,239.92492 30.013037,240.00017 30.339777,239.37178 C 30.372701,237.24295 28.073921,236.14766 28.928712,234.19788 C 30.854501,234.5715 30.295877,237.42969 31.437271,238.58786 C 33.116751,238.43813 34.059185,237.55151 35.513678,237.17679 C 35.289789,235.55391 33.600902,234.50894 34.416184,232.78681 C 34.677544,232.78681 34.938748,232.78681 35.200108,232.78681 z M 32.221195,240.78284 C 32.679321,242.4675 33.299875,243.98957 34.259399,245.17282 C 35.712011,244.64273 36.925683,244.73712 38.335806,244.07533 C 37.994642,242.27371 36.83318,241.29255 36.611173,239.37178 C 34.608245,239.30248 33.563744,240.19161 32.221195,240.78284 z M 30.966916,241.40998 C 29.923826,242.50967 28.157331,242.88596 28.301573,245.17282 C 29.583446,246.19506 31.298046,245.62123 32.848335,245.48639 C 32.510777,243.83811 31.920012,242.44273 30.966916,241.40998 z M 41.31472,249.24923 C 42.267658,250.3867 42.461758,252.28317 43.196138,253.63921 C 45.142153,252.92286 47.762342,251.07279 46.331836,248.4653 C 44.847397,248.20128 41.692258,247.53823 41.31472,249.24923 z M 35.513678,250.34672 C 36.393085,251.81909 36.275653,254.2883 37.395097,255.52062 C 38.974391,255.20941 40.605268,255.12396 41.941859,254.26635 C 41.610886,252.76811 41.219708,251.33023 40.530795,250.18994 C 40.493794,249.49538 40.417596,248.83986 39.746871,248.77887 C 38.621155,249.21003 36.13,248.96074 35.513678,250.34672 z "
         id="path4545"
         style="fill-rule:evenodd" />
      <path
         clip-rule="evenodd"
         d="M 19.754502,261.18597 C 20.310618,262.11241 19.476992,264.31524 18.186653,263.85131 C 18.116256,262.36985 18.430924,261.27361 19.754502,261.18597 z "
         id="path4559"
         style="fill-rule:evenodd" />
      <path
         clip-rule="evenodd"
         d="M 34.649067,267.45736 C 34.574908,267.94967 35.070975,267.87159 35.119422,268.24129 C 34.807106,268.92205 34.51627,269.62397 33.394788,269.49557 C 32.92506,268.34085 33.708515,267.65962 34.649067,267.45736 z "
         id="path4561"
         style="fill-rule:evenodd" />
      <path
         clip-rule="evenodd"
         d="M 24.614834,267.61415 C 25.165776,268.41046 24.730384,269.72541 23.987694,270.12271 C 22.721499,269.80647 23.448197,267.42914 24.614834,267.61415 z "
         id="path4563"
         style="fill-rule:evenodd" />
      <path
         style="fill-rule:evenodd"
         d="M 44.632087,209.13876 C 43.882389,209.97324 42.857374,210.50135 41.80996,210.86339 C 42.304972,211.49598 43.106839,210.9135 43.692408,210.7476 C 45.751481,209.9766 47.669296,208.65379 49.928894,208.55787 C 50.948929,208.49962 51.979493,208.47397 52.996597,208.53279 C 54.474922,208.97375 55.297331,210.95064 54.428917,212.26574 C 53.850047,212.72712 53.277683,213.18164 52.955758,213.84491 C 52.398391,214.1313 51.911553,214.50541 51.713211,215.11143 C 51.119056,215.35231 50.586517,215.63776 50.308146,216.24883 C 49.234559,217.61107 47.727124,218.58672 46.794331,220.067 C 46.769562,220.58629 47.664437,220.08296 47.917993,219.92903 C 48.537116,219.46514 49.274209,219.16756 50.054395,219.22449 C 50.723406,219.04678 51.282159,218.58188 51.982292,218.48414 C 53.748596,218.06975 55.575866,217.82264 57.392189,217.93555 C 58.27041,218.03732 59.341699,218.15731 59.846531,218.98987 C 60.222309,219.56021 59.951947,220.34927 59.368953,220.65806 C 58.835134,221.01491 58.145136,221.11088 57.713346,221.6192 C 57.393246,221.96157 56.956001,222.2551 56.463717,222.16357 C 55.746695,222.2068 55.159142,222.73457 54.431107,222.74458 C 51.781826,223.07799 49.09067,222.44737 46.457256,222.98634 C 46.138617,223.08474 45.254634,222.41741 45.408149,223.03414 C 45.825847,223.45751 46.528501,223.4775 46.875088,223.98908 C 47.350848,224.46859 47.955265,224.64961 48.569224,224.80432 C 49.24119,225.19024 49.821463,225.71342 50.466506,226.14109 C 52.92558,227.94328 55.306666,229.91424 57.17488,232.34292 C 61.95441,236.9373 63.474225,240.34005 63.751863,245.02814 C 64.086293,245.53113 64.315203,246.08594 64.224245,246.68658 C 64.386119,247.31755 64.905309,247.80855 64.94572,248.48266 C 65.248668,250.22913 64.952462,252.01188 65.202416,253.76442 C 65.409576,255.83454 65.476992,257.93676 65.094848,259.992 C 64.901203,260.96361 64.84141,261.97632 64.469215,262.90214 C 64.19706,263.52076 63.681488,264.0312 63.618168,264.73492 C 63.483438,265.60719 63.478731,266.5308 63.0164,267.31422 C 62.266912,268.78279 60.977264,269.94337 60.467363,271.53915 C 59.398362,272.0013 58.729208,273.01538 57.789148,273.66458 C 53.357444,277.40735 48.363751,280.62929 42.783767,282.34535 C 37.237813,284.09258 31.228873,284.08101 25.602755,282.71035 C 20.177289,281.40571 15.068886,279.0186 10.278777,276.19392 C 9.1266229,275.63266 8.6835749,274.21836 7.4740679,273.73413 C 5.8113419,271.4483 3.6324019,269.48392 2.5419369,266.82329 C 2.1414999,266.19879 2.3036409,265.25635 1.6017459,264.82645 C 0.29180692,259.23084 -0.22069908,256.32885 0.57553192,251.62746 C 0.51720992,250.86894 0.58295492,250.09853 0.98398392,249.43651 C 1.3509369,248.48072 1.5841709,247.47356 1.6730259,246.45356 C 2.3612279,245.87691 2.7052849,244.98016 2.7705209,244.10179 C 3.4708489,243.73481 3.6001499,242.88806 3.8680149,242.22037 C 3.8789019,241.75676 3.7151459,240.79825 4.3973229,240.81227 C 5.1195769,240.94502 5.4356379,239.98689 5.6942839,239.46572 C 6.0311069,238.97689 6.6618439,238.73582 6.8040619,238.08954 C 7.0285739,237.48334 7.6001129,237.19002 8.0470909,236.78471 C 8.5860139,236.13532 8.8286499,235.29331 9.3891719,234.65521 C 10.062632,233.8316 10.851503,233.09585 11.382157,232.16297 C 11.661958,231.70211 12.269491,231.68877 12.559284,231.22897 C 12.937648,230.80864 13.295306,230.34087 13.817812,230.09118 C 14.349029,229.67897 14.390211,228.88722 14.974788,228.51932 C 16.109358,227.67293 17.21181,226.78277 18.389314,225.99433 C 20.600618,224.47655 23.086176,222.72108 25.789251,222.44664 C 28.758862,222.11028 31.804948,222.00967 34.761854,222.25902 C 36.651656,222.45709 38.47672,222.98122 40.381532,222.87004 C 41.060158,222.72767 44.354938,221.28695 45.06228,221.33739 C 45.919217,221.26548 45.08832,223.75776 45.572843,222.95012 C 44.465848,222.80194 41.695345,223.67893 40.633869,223.81475 C 39.976675,223.42485 39.257779,224.50592 38.579977,224.36169 C 34.466421,224.57472 29.748123,221.53181 26.199386,223.16457 C 25.395796,222.64733 26.284969,220.04145 25.694114,219.30932 C 25.145436,218.58556 24.588685,217.85039 23.867819,217.28708 C 23.150005,217.22438 23.042491,216.40135 22.694472,215.92182 C 21.736594,214.4822 20.251972,213.5066 19.232935,212.11767 C 19.119944,211.45452 19.310444,210.73657 19.744881,210.22218 C 20.540217,210.05733 21.346489,209.95054 22.130599,209.73174 C 25.303975,208.97634 28.439755,207.92014 31.720548,207.74806 C 32.413656,207.95962 32.410923,209.0104 33.172937,209.10658 C 33.959885,209.10643 34.703796,208.79472 35.462186,208.62299 C 37.6842,207.94089 39.969594,207.04637 42.336828,207.36921 C 43.343768,207.52235 44.300636,208.13806 44.632087,209.13876 z M 32.716434,210.7066 C 32.196081,210.21657 31.546609,209.89796 30.991802,209.45233 C 28.434739,209.64891 26.027376,210.69558 23.466127,210.86339 C 23.247785,211.45372 22.063448,211.07767 22.134673,211.80984 C 25.768562,212.07427 29.337121,210.81438 32.970371,211.18467 C 33.830603,211.29839 34.698113,211.56524 35.381779,212.11767 C 35.574379,213.01014 35.375326,214.04604 35.998856,214.80033 C 36.676315,214.9548 37.174654,214.27182 37.82573,214.19693 C 38.489248,213.92142 39.178224,213.37769 39.168042,212.59072 C 39.347274,211.39804 40.433579,210.66591 41.398303,210.10555 C 41.649629,209.91384 42.44,209.57454 42.255419,209.30115 C 39.031337,209.42957 35.921762,210.42164 32.716434,210.7066 z M 51.060268,209.92268 C 49.976894,209.96477 48.885305,210.0182 47.826491,210.26908 C 47.259896,210.8567 46.385735,210.80597 45.639801,210.82391 C 44.952188,211.01547 44.410967,211.57712 43.681154,211.64552 C 43.001513,211.84235 42.308431,212.0025 41.653175,212.27445 C 41.067069,212.2221 39.875045,212.11268 40.046807,213.03186 C 40.432992,213.4836 41.07267,213.03637 41.523466,212.90033 C 42.032195,212.70998 42.606785,212.4414 43.149372,212.61083 C 43.746108,212.99335 43.910831,213.90356 44.672653,214.04638 C 45.965817,214.18935 47.131466,213.40171 48.415037,213.44675 C 49.000324,213.44046 49.607601,213.32043 50.061938,212.92755 C 50.679528,212.53063 51.415411,212.42231 52.114875,212.26189 C 52.710744,212.0536 53.32824,211.65469 53.54599,211.04048 C 53.580765,210.30208 52.75438,209.89778 52.109769,209.92347 C 51.760369,209.89854 51.409962,209.91562 51.060268,209.92268 z M 27.072178,213.05838 C 25.74825,213.15175 24.346178,212.5267 23.087189,213.16748 C 22.634432,213.66081 23.703103,213.97896 23.890362,214.4106 C 24.505391,215.04262 25.15852,215.67357 25.974685,216.03729 C 25.871333,216.81804 26.841399,216.96406 27.231382,217.45608 C 28.414241,218.62797 29.260218,220.21843 30.826621,220.94349 C 31.466102,221.22231 32.183861,221.30583 32.873221,221.21119 C 31.316413,219.98296 30.386017,218.17139 28.953598,216.82122 C 28.781794,215.9868 28.06918,215.21699 28.36339,214.32484 C 28.598144,213.62212 29.447302,213.41054 29.737523,212.74481 C 28.839324,212.75513 27.967241,213.01197 27.072178,213.05838 z M 30.207876,215.25337 C 31.574622,215.84489 33.107003,215.57775 34.507497,215.2655 C 35.143098,215.03755 34.425674,214.37911 34.586709,213.90048 C 34.458379,213.11112 33.437449,213.61004 32.909346,213.61242 C 31.84556,213.84102 30.952093,214.48368 30.207876,215.25337 z M 40.712464,214.78301 C 40.589793,215.36766 39.906916,215.36437 39.434838,215.41559 C 38.877344,215.49854 38.519997,216.00277 38.017141,216.2228 C 36.317331,217.13708 34.368254,217.40058 32.480625,217.65275 C 32.174937,217.74343 31.282241,217.62229 31.874048,218.04617 C 32.722601,218.92857 33.873537,219.62324 34.27567,220.8425 C 34.234896,221.45478 34.629913,222.14254 35.317276,221.89964 C 38.22253,222.09843 41.234804,222.23769 44.026087,221.25538 C 44.597964,220.88949 44.951116,220.28191 45.458466,219.84025 C 47.014824,218.20932 48.590932,216.59697 50.11956,214.9398 C 47.702981,215.38793 45.161121,215.80342 42.75067,215.09658 C 41.550136,215.88759 41.442938,217.45083 40.733826,218.58986 C 40.252352,219.04606 40.067171,219.67157 39.808628,220.22143 C 39.278264,220.76411 38.501049,220.25435 38.933868,219.59454 C 39.191632,218.72928 39.830595,218.05705 40.267333,217.29047 C 40.358,216.58726 40.811869,216.10369 41.196734,215.56619 C 41.312897,215.22369 41.619595,214.56636 40.980537,214.78226 C 40.891662,214.79154 40.801201,214.79839 40.712464,214.78301 z M 48.708494,221.05441 C 50.315152,221.57697 51.977616,221.00188 53.56881,220.71245 C 54.478009,220.51005 55.359387,220.29092 56.264242,220.07371 C 56.574548,220.00251 57.526558,219.57277 57.0368,219.32881 C 54.444434,219.34535 51.746558,219.48601 49.373836,220.63389 C 49.142066,220.75731 48.918356,220.89642 48.708494,221.05441 z M 53.255256,230.4615 C 53.314142,229.94713 52.810121,229.69479 52.467201,229.57086 C 52.153278,228.93123 51.541892,228.56302 50.892864,228.3503 C 50.232023,227.93314 49.992113,227.00773 49.175287,226.8104 C 48.544728,226.5688 47.976665,226.19363 47.405704,225.84788 C 46.717754,225.62933 46.230194,225.09237 45.810336,224.53531 C 45.407992,223.92347 44.534995,223.6466 43.977662,224.23178 C 43.513155,224.65593 42.936946,224.91198 42.317871,225.00188 C 40.53272,225.32932 38.708771,225.11643 36.913754,224.99836 C 35.380809,224.85745 33.839789,224.80559 32.310738,224.62819 C 30.336372,224.36408 28.388659,223.82493 26.601825,222.93583 C 26.064587,223.35413 25.529598,223.80633 24.877191,224.03332 C 23.854138,225.35552 22.317745,226.20336 21.427923,227.63937 C 20.699203,227.6933 20.266432,228.47252 19.605775,228.67103 C 17.875193,230.38029 16.379061,232.32166 14.529388,233.91077 C 14.378081,234.82784 13.398513,235.20518 12.94992,235.94466 C 11.91949,237.33606 11.041131,238.83482 9.9616479,240.19117 C 8.9974879,241.45078 7.9201459,242.63641 7.1067219,244.00217 C 7.1473029,244.49395 7.7713269,244.91471 7.2707219,245.42283 C 6.8916979,246.21507 6.3208759,246.89218 5.7494339,247.55106 C 5.6480939,248.92119 4.9003559,248.49803 4.6664639,251.46164 C 4.1847629,256.23438 3.1313559,258.98964 5.8059109,265.43808 C 6.2893519,265.92453 6.5572539,266.5648 6.8509039,267.17481 C 7.0937849,267.83067 7.7006849,268.19033 8.2437479,268.514 C 8.4107909,269.08154 8.6946469,269.65998 9.3762009,269.58675 C 10.064643,269.86815 9.9617169,270.74273 10.237303,271.31569 C 10.59793,271.94337 11.362162,272.12205 11.918625,272.52405 C 12.865419,273.06525 13.719398,273.75274 14.64937,274.31671 C 15.434701,274.72289 16.351804,274.94983 16.959933,275.6322 C 17.790374,276.35582 18.954902,276.42259 19.87719,276.98083 C 20.297857,277.61566 21.153852,277.29114 21.755154,277.54867 C 22.522255,278.32757 23.643672,278.51752 24.646723,278.82948 C 26.309741,279.26163 28.026953,279.4284 29.737523,279.53518 C 30.65246,280.32419 31.944959,280.19168 33.065184,280.1432 C 33.722371,279.93846 34.228708,280.49456 34.83174,280.48322 C 35.775217,280.52536 36.718935,280.48488 37.651548,280.33144 C 38.56752,280.19761 39.49695,280.10231 40.421218,280.19444 C 41.454629,280.13164 42.34713,279.30593 43.415494,279.53381 C 45.628063,279.54284 47.489324,278.07573 49.649205,277.81054 C 50.270371,277.0672 51.227416,276.71373 52.157764,276.55626 C 52.90242,275.73857 53.97256,275.36822 54.928361,274.86779 C 55.301799,274.21839 55.789215,273.63573 56.410269,273.21258 C 57.221811,272.53549 58.097784,271.88537 58.652956,270.96592 C 58.704726,270.4211 59.397096,270.24672 59.423002,269.66808 C 59.66653,269.00711 59.95434,268.31243 60.564691,267.9074 C 61.023138,267.40613 60.912515,266.63542 61.35888,266.12243 C 61.79643,265.71151 61.886969,265.2394 61.938786,264.67915 C 62.347765,264.31749 62.546944,263.86464 62.637636,263.29789 C 62.798723,262.51704 63.104758,261.78276 63.383136,261.04005 C 63.768344,259.97813 63.830128,258.84441 64.025473,257.74155 C 64.36416,255.17917 63.961757,252.60199 63.735363,250.04812 C 63.674631,249.01466 63.505364,247.99098 63.191451,247.00283 C 59.547735,240.01277 65.852166,245.3824 57.386887,234.5246 C 56.925249,234.07605 56.397638,233.6207 56.234171,232.97006 C 55.335817,232.0248 54.190372,231.36584 53.255256,230.4615 z "
         id="path4691"
         sodipodi:nodetypes="ccccccccccccccccccccccccccccccccccccccccccccccccccccccccccccccccccccccccccccccccccccccccccccccccccccccccccccccscccccccccccccccccccccccccccscccccccccccccccccccccccccccccccccccccccccccccccccccscccccc" />
    </g>
  </g>
</svg>
